<?xml version="1.0" encoding="utf-8"?>
<!-- Generator: Adobe Illustrator 21.1.0, SVG Export Plug-In . SVG Version: 6.00 Build 0)  -->
<svg version="1.1" xmlns="http://www.w3.org/2000/svg" xmlns:xlink="http://www.w3.org/1999/xlink" x="0px" y="0px"
	 viewBox="0 0 800 480" style="enable-background:new 0 0 800 480;" xml:space="preserve">
<style type="text/css">
	.st0{display:none;opacity:0.5;}
	.st1{fill:url(#SVGID_1_);}
	.st2{fill:#A0EAA3;}
	.st3{fill:#76D67D;}
	.st4{fill:url(#SVGID_2_);}
	.st5{fill:url(#SVGID_3_);}
	.st6{fill:url(#SVGID_4_);}
	.st7{fill:url(#SVGID_5_);}
	.st8{fill:url(#SVGID_6_);}
	.st9{fill:url(#SVGID_7_);}
	.st10{fill:#6EC655;}
	.st11{fill:none;}
	.st12{fill:#5CC668;}
	.st13{fill:#5CC668;stroke:#297519;stroke-miterlimit:10;}
	.st14{fill:url(#SVGID_8_);}
	.st15{fill:#C18452;}
	.st16{fill:none;stroke:#9B6135;stroke-miterlimit:10;}
	.st17{fill:#F2C3AA;}
	.st18{fill:#EAB0EA;}
	.st19{fill:#D39F1E;}
	.st20{fill:#FCFF88;}
	.st21{fill:#C8ACFC;}
	.st22{fill:#EF84EF;}
	.st23{fill:#F6FF73;}
	.st24{fill:#6593D6;}
	.st25{fill:#8C3E38;}
	.st26{fill:#F4DF78;}
	.st27{fill:#F4EFDF;}
	.st28{fill:#EADDA9;}
	.st29{fill:#006837;}
	.st30{fill:#808080;}
	.st31{fill:#F7931E;}
	.st32{fill:#D62963;}
	.st33{fill:#F9C7F9;}
	.st34{fill:#262B2A;}
	.st35{fill:#0071BC;}
	.st36{fill:#9CE5E0;}
	.st37{fill:#42210B;}
	.st38{fill:#120968;}
	.st39{fill:#FFFFFF;}
	.st40{fill:#325F96;}
	.st41{fill:url(#SVGID_9_);}
	.st42{fill:#F98AEE;}
	.st43{fill:url(#SVGID_10_);}
	.st44{fill:#9E005D;}
	.st45{fill:#BC8806;}
	.st46{fill:#F7F746;}
	.st47{fill:#6D6C5F;}
	.st48{fill:url(#SVGID_11_);}
	.st49{fill:#CAE5EF;}
	.st50{fill:#777777;}
	.st51{fill:#C1D2E0;}
	.st52{fill:#F4A2F0;}
	.st53{fill:#750A07;}
	.st54{fill:url(#SVGID_12_);}
	.st55{fill:#186827;}
	.st56{fill:#1B8E2B;}
	.st57{fill:#3CD354;}
	.st58{fill:#C9C8C3;}
	.st59{fill:url(#SVGID_13_);}
	.st60{fill:url(#SVGID_14_);}
	.st61{fill:#10491A;}
	.st62{fill:#D887E8;}
	.st63{fill:#BA65CE;}
	.st64{fill:#79ADD8;}
	.st65{fill:#C1BD36;}
	.st66{fill:#286617;}
	.st67{fill:#224C75;}
	.st68{fill:#18891A;}
	.st69{fill:#4A2EAF;}
	.st70{fill:#3228AD;}
	.st71{fill:#4F210E;}
	.st72{fill:#A85A26;}
	.st73{fill:#D3B72A;}
	.st74{fill:#7D1AE5;}
	.st75{fill:#8B40ED;}
	.st76{fill:#563CD6;}
	.st77{fill:#4450B7;}
	.st78{fill:#252B9E;}
	.st79{fill:#4634C1;}
	.st80{fill:#BA9B36;}
	.st81{fill:#C49F39;}
	.st82{fill:#8C491C;}
	.st83{fill:#470909;}
	.st84{fill:#FF73FB;}
	.st85{fill:#6A30C6;}
	.st86{fill:#B98100;}
	.st87{fill:#A04400;}
	.st88{fill:#F7C841;}
	.st89{fill:#D39235;}
	.st90{fill:#E8CF42;}
	.st91{fill:#FFEA50;}
	.st92{fill:#BCBAAF;}
	.st93{fill:#BAE2E8;}
	.st94{fill:#723B16;}
	.st95{fill:#314099;}
	.st96{fill:#B57726;}
	.st97{fill:#BF7F32;}
	.st98{fill:#DD8345;}
	.st99{fill:url(#SVGID_15_);}
	.st100{fill:url(#SVGID_16_);}
	.st101{fill:#55A542;}
	.st102{fill:#E0A844;}
	.st103{fill:#EF95DC;}
	.st104{fill:#9B9A9A;}
	.st105{fill:#5B5756;}
	.st106{fill:#267F17;}
	.st107{fill:#C68F20;}
	.st108{fill:#7C7777;}
	.st109{fill:#F7ADF7;}
	.st110{fill:#C48E37;}
	.st111{fill:#42892E;}
	.st112{fill:#EDBB6B;}
	.st113{fill:#456EAF;}
	.st114{fill:#CE67CE;}
	.st115{fill:#E697E8;}
	.st116{fill:#B76934;}
	.st117{fill:#CC804C;}
	.st118{fill:#EAA27F;}
	.st119{fill:url(#SVGID_17_);}
	.st120{fill:url(#SVGID_18_);}
	.st121{fill:#722114;}
	.st122{fill:#A86E35;}
	.st123{fill:#DDAE5B;}
	.st124{fill:#EABD75;}
	.st125{fill:#47120C;}
	.st126{fill:#6B221D;}
	.st127{fill:url(#SVGID_19_);}
	.st128{fill:#E8CA4D;}
	.st129{fill:#EFD66A;}
	.st130{fill:#962F79;}
	.st131{fill:#7C1808;}
	.st132{fill:#992114;}
	.st133{fill:url(#SVGID_20_);}
	.st134{fill:#C18249;}
	.st135{fill:#6D2622;}
	.st136{fill:#C99C5B;}
	.st137{fill:#D8A956;}
	.st138{fill:#C471C9;}
	.st139{fill:#4075B5;}
	.st140{fill:#E2A78D;}
	.st141{fill:#CC8E79;}
	.st142{fill:#F2C4A5;}
	.st143{fill:#C98150;}
	.st144{fill:#A37B40;}
	.st145{fill:#FCBE32;}
	.st146{fill:#BA9343;}
	.st147{fill:#D3A85B;}
	.st148{fill:#EAAA44;}
	.st149{fill:#BC6F9F;}
	.st150{fill:#EAB03D;}
	.st151{fill:#EFBA73;}
	.st152{fill:#D1A688;}
	.st153{fill:#C9995F;}
	.st154{fill:#D88BBF;}
	.st155{fill:#B76EA2;}
	.st156{fill:#E59CD8;}
	.st157{fill:#D39954;}
	.st158{fill:#F9C8A0;}
	.st159{fill:#F7E0AD;}
	.st160{fill:#C99E41;}
	.st161{fill:#682E15;}
	.st162{fill:#EFEDED;}
	.st163{fill:#8C0310;}
	.st164{fill:#BA0620;}
	.st165{fill:#D69570;}
	.st166{fill:#CCB34C;}
	.st167{fill:#F7E87F;}
	.st168{fill:#F9E487;}
	.st169{fill:#F9EFB4;}
	.st170{fill:#B5AA28;}
	.st171{fill:#EADA4E;}
	.st172{fill:url(#SVGID_21_);}
	.st173{fill:#6D1913;}
	.st174{fill:#912422;}
	.st175{fill:#DD6BCF;}
	.st176{fill:url(#SVGID_22_);}
	.st177{fill:#3D3D3D;}
	.st178{fill:#6D6B6B;}
	.st179{fill:#E271E2;}
	.st180{fill:#E58FDF;}
	.st181{fill:#218B00;}
	.st182{fill:#874630;}
	.st183{fill:#D38888;}
	.st184{fill:url(#SVGID_23_);}
	.st185{fill:url(#SVGID_24_);}
	.st186{fill:#A50C29;}
	.st187{fill:#D8BC30;}
	.st188{fill:#D8C766;}
	.st189{fill:#DDAD99;}
	.st190{fill:#4C4A4A;}
	.st191{fill:url(#SVGID_25_);}
	.st192{fill:#C91F50;}
	.st193{fill:#F6FFA2;}
	.st194{fill:#CE805D;}
	.st195{fill:#720909;}
	.st196{fill:#3B7227;}
	.st197{opacity:0.5;fill:#FFFFFF;}
	.st198{fill:#F673FF;}
	.st199{fill:#D6A28B;}
	.st200{fill:#AF174A;}
	.st201{fill:#CA87CC;}
	.st202{fill:#020000;}
	.st203{fill:#FFFF33;}
	.st204{fill:#F7E184;}
	.st205{fill:#332E26;}
	.st206{fill:#B26A39;}
	.st207{fill:#E50E0E;}
	.st208{fill:#87241F;}
	.st209{fill:#D6CECE;}
	.st210{fill:#6D412E;}
	.st211{fill:#9B450B;}
	.st212{fill:#8C8F96;}
	.st213{fill:#D6A1E2;}
	.st214{fill:#53A553;}
	.st215{fill:#151516;}
	.st216{fill:none;stroke:#9B450B;stroke-width:0.5;stroke-miterlimit:10;}
	.st217{fill:none;stroke:#DBA53A;stroke-width:0.5;stroke-miterlimit:10;}
	.st218{fill:none;stroke:#332E26;stroke-width:0.5;stroke-miterlimit:10;}
	.st219{fill:none;stroke:#CE130F;stroke-width:0.5;stroke-miterlimit:10;}
	.st220{fill:none;stroke:#C1BCBC;stroke-width:0.5;stroke-miterlimit:10;}
	.st221{fill:none;stroke:#6B6E77;stroke-width:0.5;stroke-miterlimit:10;}
	.st222{fill:none;stroke:#151516;stroke-width:0.5;stroke-miterlimit:10;}
	.st223{fill:none;stroke:#D6A1E2;stroke-width:0.5;stroke-miterlimit:10;}
	.st224{fill:none;stroke:#87241F;stroke-width:0.5;stroke-miterlimit:10;}
	.st225{fill:none;stroke:#000000;stroke-miterlimit:10;}
	.st226{fill:none;stroke:#000000;stroke-width:0.5;stroke-miterlimit:10;}
	.st227{fill:#FCFCFC;}
	.st228{fill:#6F7277;}
	.st229{fill:#93562C;}
	.st230{fill:#605A51;}
	.st231{fill:#EF6AD6;}
	.st232{fill:#999999;stroke:#999999;stroke-miterlimit:10;}
	.st233{fill:#D62963;stroke:#D62963;stroke-miterlimit:10;}
	.st234{fill:#0071BC;stroke:#0071BC;stroke-miterlimit:10;}
	.st235{opacity:0.7;}
	.st236{fill:#F0F7FC;}
	.st237{fill:#7C3505;}
	.st238{fill:#D68565;}
	.st239{opacity:0.5;}
	.st240{fill:#CE67BB;}
	.st241{fill:none;stroke:#C98150;stroke-miterlimit:10;}
	.st242{fill:none;stroke:#BA9343;stroke-miterlimit:10;}
	.st243{fill:none;stroke:#EAAA44;stroke-miterlimit:10;}
	.st244{fill:none;stroke:#BC6F9F;stroke-miterlimit:10;}
	.st245{fill:none;stroke:#A37B40;stroke-miterlimit:10;}
	.st246{fill:#140603;}
	.st247{fill:none;stroke:#140603;stroke-miterlimit:10;}
	.st248{fill:#DBA53A;}
	.st249{fill:#CE130F;}
	.st250{fill:#C1BCBC;}
	.st251{fill:#6B6E77;}
	.st252{fill:#EDE7DF;}
</style>
<g id="Слой_1" class="st0">
</g>
<g id="фон">
	<linearGradient id="SVGID_1_" gradientUnits="userSpaceOnUse" x1="397.1066" y1="429.0363" x2="403.1066" y2="37.0363">
		<stop  offset="0" style="stop-color:#AAFFEA"/>
		<stop  offset="1" style="stop-color:#2ABAFF"/>
	</linearGradient>
	<polyline class="st1" points="14,480 0,480 0,0 800,0 800,480 14,480 	"/>
</g>
<g id="лайн">
	<g>
		<g id="XMLID_1_">
			<g>
				<path class="st202" d="M552.3,266.3c5.3,0.9,12,8.9,11.7,14.4l0,0.8c-3.5,0.1-7-0.4-10.4-1l0.1-0.5
					C548.3,277.3,540.8,264.3,552.3,266.3z"/>
				<path class="st202" d="M586,258.2c8.1-3.2,5.6,9.6,3.1,13c-2.8,2.1-5.7,4-8.8,5.6l-0.3-0.5C580,270.8,579.7,260.7,586,258.2z"/>
				<path class="st203" d="M714.2,58.7c7,10.5,8.9,24.7,3.1,35.8c-6.9,13.2-22.6,19.7-30.8,32.1c-2.2,3.3-3.9,7.1-4,11.1
					c-0.1,4,1.5,8.1,4.7,10.5c-7.9,2.7-16.4,3.7-24.7,2.8c-0.4-0.1-0.9-0.1-1.3-0.4c-0.5-0.3-0.6-1-0.8-1.6
					c-1.4-6.4-2.9-12.7-4.3-19.1c-0.2-0.8-0.3-1.6,0.2-2.3c0.3-0.4,0.8-0.6,1.3-0.8c11.9-4.3,23.3-11.8,29.1-23.1
					c5.9-11.2,5-26.5-4.3-35.2c-6.6-6.1-16-8.1-24.9-8.6c-3.7-0.2-7.4-0.2-10.9,0.9c-8.3,2.6-13.7,11.2-14.2,19.9
					c0-0.3-5.8-3.9-6.5-4.5c-2.2-1.9-4.1-4-5.8-6.3c-4.1-5.7-2.9-8.7,1.3-14c6.9-8.8,16.9-15,27.6-18.1c11.2-3.2,23.2-3,34.4,0.1
					C695.7,41.4,707.2,48.3,714.2,58.7z"/>
				<path class="st203" d="M691.1,158.7c5.3,1.3,10.3,6.1,9.8,11.5c0,0.4-0.1,0.8-0.4,1.1c-0.3,0.4-0.9,0.6-1.4,0.7
					c-6.1,1.6-12.5,2.5-18.1,5.3c-1.9,0.9-3.9,2.1-5.9,1.5c-1.2-0.4-2.1-1.3-3-2.3c-1.7-1.9-3.3-4-4.7-6.1c-0.8-1.2-1.6-2.5-1.7-3.9
					c-0.1-2.2,1.4-4.2,3.3-5.2C674.5,158.2,685.2,157.2,691.1,158.7z"/>
				<path class="st204" d="M589.1,271.2c3.1-2.3,6-4.9,8.8-7.6c6.6-6.4,12-12.6,13.4-22c1-7,1.5-19.8-6.8-22.3
					c-9.2-2.7-20.1-1.5-29.6-0.7c-5.2,0.4-10.4,0.6-15.7,1c-0.1,0-7.7-1.2-14.3,1.4l-0.2,0c-15.7,0.4-36.9,14.9-37.8,31.9
					c-0.5,8.6,10.4,17.2,17.6,20.2c7.6,3.1,16.5,5,24.4,6.6c1.6,0.3,3.1,0.6,4.7,0.9c3.5,0.6,7,1.1,10.4,1c2.5-0.1,5-0.4,7.5-1.1
					c3.1-0.9,6-2.1,8.8-3.6C583.4,275.3,586.3,273.3,589.1,271.2z M633.7,243.6c1.8,12,0.6,25.1-3.5,36.5
					c-5.3,14.4-11.2,31.9-23.5,41.7c-5.2,4.2-10.8,7.9-16.5,11.2c-11.4,6.6-23.6,11.8-35.9,16.3c-21.4,7.9-47.5,8.3-69.5,3.4
					c-5.2-1.2-9.5-3.5-14.1-6.1c-5.4-3.1-11.5-5.7-15.7-10.4c-0.3-0.4-0.7-0.8-1.1-1.3c-4.7-6-12.1-19.8-7.5-26.1
					c-2.2,2.4-4.8,4.6-6.4,7.4c-2.8-8.1-4.9-31.3,5.6-35.4c-3.9,1.5-6.1,4.4-9.5,6.5c-0.4-6.1,1.5-13.1,3.9-18.6
					c1.6-3.6,4.1-6.9,6.6-10c1.9-2.4,6.4-5.9,7.2-8.6c-3.1-0.1-6.8,1.1-9.7,0.5c1.6-5.3,8.1-10.6,12.2-14.1
					c8.3-7.1,19-12.9,29.8-14.7c5.3-0.9,10.6-2.5,15.9-2.8c4.3-0.2,8.4,2.1,12.3,1.7l0.8-0.7c0.4-1.3-1.6-3.5-2.3-4.7
					c-1.2-1.8-2.1-3.7-3.2-5.5c-1.2-2-2.8-3.5-4.3-5.2c-2.3-2.4-4-5.2-6.1-7.7c-3.8-4.6-8.1-8.7-11.4-13.7c-2.6-4-5.8-7.5-8.4-11.5
					c-4.1-6.5-10.1-14.1-8.9-22.4c0.6-4.4,3.9-8.2,6.8-11.4c3.2-3.4,6.9-4.5,11.5-4.1c7.6,0.6,16.8,5.6,19.9,12.8l-0.1,0
					c0.6,1.6,1.3,3.2,1.9,4.9c3.5,8.9,7.3,17.9,12.1,26.2c3.8,6.4,8.2,12.4,13.6,17.6c4.2,4,9.3,6.8,14,10l0.7-0.3
					c1,0.1,3.7-1.6,5.2-2.1c10.2-2.9,22.6-2,33.1-0.9c4.6,0.5,9.4,1.4,14.1,2.9c5.7,1.8,11,4.5,15.1,8.6
					C627.5,222.5,631.8,231.4,633.7,243.6z M564.6,322.3c1.5-7.7-7.8-6.5-12.1-8.8l-0.1,0c-12.5-2.7-16.1,15.8-12.4,24.5
					c1,2.4,2,6.3,5,6.2c3.1-0.1,5.2-4.2,7.2-6.1C556.8,333.8,563.3,328.8,564.6,322.3z"/>
				<path class="st205" d="M604.4,219.4c8.3,2.5,7.9,15.2,6.8,22.3c-1.4,9.3-6.8,15.6-13.4,22c-2.8,2.7-5.7,5.3-8.8,7.6
					c2.6-3.4,5-16.2-3.1-13c-6.3,2.5-6,12.5-6,18.1l0.3,0.5c-2.8,1.5-5.7,2.7-8.8,3.6c-2.5,0.7-5,1-7.5,1.1l0-0.8
					c0.2-5.5-6.4-13.4-11.7-14.4c-11.4-2-3.9,11,1.4,13.7l-0.1,0.5c-1.5-0.3-3.1-0.6-4.7-0.9c-7.9-1.6-16.8-3.5-24.4-6.6
					c-7.2-2.9-18-11.5-17.6-20.2c0.9-17,22.1-31.5,37.8-31.9l0.2,0c6.7-2.6,14.3-1.4,14.3-1.4c5.2-0.4,10.4-0.5,15.7-1
					C584.3,217.9,595.2,216.7,604.4,219.4z"/>
				<path class="st206" d="M508.8,146.6c-3.2-7.2-12.3-12.2-19.9-12.8c-4.6-0.4-8.3,0.7-11.5,4.1c-2.9,3.2-6.2,6.9-6.8,11.4
					c-1.2,8.3,4.8,15.9,8.9,22.4c2.6,4.1,5.8,7.6,8.4,11.5c3.3,5,7.5,9.1,11.4,13.7c2.1,2.5,3.9,5.3,6.1,7.7
					c1.6,1.7,3.1,3.2,4.3,5.2c1.1,1.8,2,3.7,3.2,5.5c0.7,1.1,2.8,3.4,2.3,4.7l-0.8,0.7c-4,0.4-8.1-1.9-12.3-1.7
					c-5.3,0.3-10.7,1.9-15.9,2.8c-10.8,1.8-21.5,7.5-29.8,14.7c-4.1,3.5-10.7,8.8-12.2,14.1c2.9,0.6,6.6-0.6,9.7-0.5
					c-0.8,2.8-5.3,6.2-7.2,8.6c-2.5,3.1-5,6.4-6.6,10c-2.4,5.5-4.3,12.6-3.9,18.6c3.4-2.1,5.6-5,9.5-6.5
					c-10.5,4.1-8.4,27.3-5.6,35.4c1.6-2.8,4.2-5,6.4-7.4c-4.6,6.3,2.8,20.1,7.5,26.1l-1.2-0.3c-3.5-0.1-8.5-2.4-11.9-4
					c-4.6-2.2-9.8-3.8-13.9-6.8c-7.2-5.3-16.7-11.5-20.9-19.5l-0.4-0.2c2.3-5.1,3.1-10.9,2.3-16.4c-0.4-2.8-1.2-5.6-1.3-8.5
					c-0.1-2.7,0.5-5.4,0.9-8.1c1.1-9-1.2-18-3.4-26.8c2.6,0.4,3.5-3.2,3.4-5.8c-0.6-10.3-2.1-20.6-4.6-30.6c1,0.2,2.1,0.4,3.1,0.7
					c2.8-5.5,2.5-12.2,0.8-18.1s-4.6-11.5-7-17.2c-0.4-1-0.8-2-0.8-3.1c0-1.3,0.5-2.5,1-3.7c2.5-6.5,2.7-13.9,0.5-20.6
					c0.2,0.1,0.3,0.2,0.5,0.3l1-0.4c5.9-5.1,11-11.3,14.8-18.2c-0.4,1.3,1.1,2.7,2.5,2.6c1.4-0.1,2.6-1,3.7-2
					c7-6.5,11-16.2,10.8-25.8c3.9,1.8,7.4,4.4,10.2,7.6c1,1.1,1.5,3.1,0.7,3.8c-0.2,0.1-0.4,0.2-0.7,0.3c0.3,0,0.5-0.1,0.7-0.3
					c3.7-1.8,5.5-6.5,4.5-10.5c-1-4.3-4.5-7.6-8.4-9.6c-3.9-1.9-8.3-2.7-12.6-3.5c7.3-2.7,15.7-2.1,22.6,1.6
					c6.8,3.7,11.9,10.5,13.6,18.1c4.7-1.5,7.8-7,6.6-11.8c4.3,3.1,7.1,8.1,7.4,13.4c7.1-5.8,16.6-8.6,25.7-7.6
					c-4.3,1.8-7.8,5.5-9.2,10c10.4-4.6,22.6-4.6,33.1-0.2l0.3-0.6c10.4-4.4,22.1-5.6,33.2-3.4c-2.1,1-4.1,2.1-6.2,3.2
					c14.4,5.5,26.4,17.1,32.3,31.3c-2.4-0.9-4.7-1.8-7.1-2.8c7.8,7.8,12.3,18.8,12.1,29.8c-1.6-1.6-3.3-3.3-4.9-4.9
					c3.4,6.6,2.8,15.2-1.5,21.3l-1.5,1.8c6.2,5.1,12.7,9.8,19.3,14.3l-0.3,1c-4.6-1.5-9.5-2.4-14.1-2.9c-10.5-1.1-22.9-2-33.1,0.9
					c-1.6,0.4-4.2,2.2-5.2,2.1l-0.7,0.3c-4.7-3.2-9.8-6-14-10c-5.5-5.2-9.9-11.2-13.6-17.6l0.8-0.5c8.6,0,20.4-0.9,26-7.5
					c1.8-2.1,3-4.9,3.2-8.4c0.1-1,0.1-2.1,0-3.3c-0.1-2.3-0.6-4.7-1.3-6.5l-0.2,0.1c-2.1-2.5-4.7-3.7-7.8-4.7
					c-3.2-1.1-6.4-1.3-9.5-1.3c-2.3,0-4.7,0.3-7.1,0.5c-0.8,0.1-1.7,0.2-2.7,0.4c-4.3,0.8-10.2,2.5-12.7,4.8l-0.9,0.3
					C509.9,149.9,509.3,148.3,508.8,146.6L508.8,146.6z M412.7,178.4c-0.2,4,1.5,9.7,3.4,13c1.8,3.1,7.2,9.5,11.1,8.9v0
					c8.7-0.1,16.6-1.6,24.7-4.9c3-1.3,5.3-3,7-5.1c2.8-3.5,4-7.9,4-12.7c0-1.7-0.1-3.5-0.4-5.2c-0.5-3.6-0.5-11.5-3.8-13.8
					c-3.4-1-8.5,0.9-12,1.3c-1.6,0.2-3.2,0.5-4.8,0.8c-2.6,0.6-5.1,1.3-7.6,2.2c-3,1.1-5.9,2.5-8.5,4.1c-3.5,2.1-7.1,4.8-10.2,7.6
					C414.3,175.6,413.5,177,412.7,178.4z M545,142.3c-0.2-1.2-1-2.1-1.6-3c-0.8-1.4-1.5-2.8-2.4-4.2c-1.6-2.7-3.6-5.2-6-7.1
					c-4.5-3.6-10.2-6.7-15.8-8.1c-2-0.5-5.1-1.3-7.1-0.5l-0.5,0.6c-0.6,1.4-0.1,4.3-0.1,5.9c0,2-0.1,4,0,6c1.6-0.8,4.5-0.4,6.2,0.1
					c2.3,0.6,4.7,0.9,7,1.4c4.9,1,9.4,3,13.8,5.2C540.8,139.6,543.2,140.7,545,142.3z M443.9,142.4c0.1-3.4-2.2-10.1-5.4-10.8
					c-3.1-0.7-10,3.9-12.5,5.4c-8,4.9-16.3,16.6-19.5,25l0.4,0.2c-0.4,1.3,0.7,2.5,2.5,3.2C414.4,155.7,432.5,141.7,443.9,142.4z"/>
				<path class="st206" d="M459.2,480.2L319.8,480c0-0.2,0-0.3,0-0.5c0.1-3,0.3-6,0.5-9c1.5-15.4,6.3-30.5,13.4-44.4
					c6.4-12.7,11.3-25.7,20-36.8l0.8,0.2c1.4-5.4,3.1-11.2,5.4-16.2c2.3-4.9,5.3-10.1,8.4-14.6c1.9-2.8,6.9-7.1,7.7-9.7l0.1-0.5
					c1.6,0.2,3.3,0.3,4.9,0.1c7.3-0.6,14.5-6.9,14.2-14l2.5,0c7.9,7.4,15.3,14.8,25.3,19.1c9.9,4.2,19.6,8.8,29.6,12.6
					c18.8,7.1,40.2,9.8,59.9,11.6c10.5,1,20.1,0.7,30.5-0.7l1.3-0.2c0.4,3,1.4,6.2,3.1,6.8l-0.1,0.7c0.2,0.2,0.5,0.3,0.7,0.4l0,0.3
					c-1.5,8.4-6.2,16.6-9,24.7c3.1,2.6,5.8,5.3,8.5,8.3c2.8,3.2,4.5,7.9,7.8,10.6c2.6-9.2,9.9-16.6,12.7-25.6
					c-4.1-1.5-6.2-6.8-8.6-10c-2.3-3-3.6-6.4-5.6-9.3c2.6-2.6,4.1-7.6,3.6-11.5l1-0.1c7.7,0,15.2-3.2,22.2-6.5
					c1.9-0.9,3.5-2,4.8-3.2l1.1,0.1c2.5,5.8,3.4,12.5,5.1,18.7c1.9,7,3.8,13.8,5.2,21c3.2,17.2,6.7,33.8,5.1,51.6
					c-0.6,6.7-1,13.5-2,20.1c-0.3,1.7-0.4,4-0.8,6.3l-31.4,0l-70.1-0.1L459.2,480.2z"/>
				<path class="st207" d="M590.7,334c1.1,2.7,0.5,8.3,0.3,11.5c-0.3,6.8-1.2,12.9-5.8,17.1c-1.3,1.2-2.8,2.3-4.8,3.2
					c-7,3.3-14.5,6.5-22.2,6.5l-1,0.1c-0.3-1.8-0.9-3.4-2.2-4.3c-3.9-3-9.7-0.4-10.8,3.8c-0.3,1-0.3,3.1,0,5.2l-1.3,0.2
					c-10.5,1.3-20,1.7-30.5,0.7c-19.7-1.9-41.1-4.5-59.9-11.6c-10-3.8-19.7-8.4-29.6-12.6c-10.1-4.3-17.4-11.7-25.3-19.1l-2.5,0
					c0-0.5-0.1-0.9-0.1-1.4c4,0.1,7-4,8.1-7.9c1.7-6.1,0.7-12.9-2.6-18.4c1.4,1.6,4-0.5,4.9-2.4c0.1-0.2,0.2-0.3,0.2-0.5l0.4,0.2
					c4.2,8,13.7,14.2,20.9,19.5c4.2,3,9.3,4.6,13.9,6.8c3.4,1.6,8.4,3.9,11.9,4l1.2,0.3c0.4,0.5,0.7,0.9,1.1,1.3
					c4.2,4.8,10.3,7.4,15.7,10.4c4.6,2.6,8.9,4.9,14.1,6.1c22,4.9,48.1,4.5,69.5-3.4c12.2-4.5,24.5-9.7,35.9-16.3L590.7,334z"/>
				<path class="st208" d="M552.5,313.5c4.3,2.3,13.5,1.1,12.1,8.8c-1.3,6.5-7.7,11.5-12.4,15.9c-2,1.9-4.2,6-7.2,6.1
					c-3,0.1-4-3.8-5-6.2c-3.8-8.7-0.1-27.2,12.4-24.5L552.5,313.5z"/>
				<path class="st209" d="M559.3,393.3c2.5,3.2,4.6,8.6,8.6,10c-2.8,9-10.1,16.4-12.7,25.6c-3.3-2.7-5-7.4-7.8-10.6
					c-2.6-3-5.4-5.8-8.5-8.3c2.8-8.1,7.5-16.3,9-24.7l0-0.3c2.2,1,4.1,0.4,5.7-1.2C555.8,386.8,557,390.2,559.3,393.3z"/>
				<path class="st209" d="M553.8,383.9c-1.6,1.5-3.5,2.2-5.7,1.2c-0.2-0.1-0.5-0.3-0.7-0.4l0.1-0.7c-1.8-0.6-2.8-3.8-3.1-6.8
					c-0.3-2.1-0.2-4.1,0-5.2c1.2-4.3,7-6.9,10.8-3.8c1.2,1,1.9,2.5,2.2,4.3C557.9,376.4,556.4,381.4,553.8,383.9z"/>
				<path class="st210" d="M524.6,148.5l-0.4-2.1c1-0.2,1.9-0.3,2.7-0.4c2.4-0.2,4.8-0.5,7.1-0.5l0,0.8c-3.5,3.8-2.4,12.5,2.2,15.5
					c5,3.2,14.1,2.2,16.3-3.8l0.2,0c0.1,1.2,0.1,2.3,0,3.3c-0.2,3.5-1.4,6.3-3.2,8.4l-0.3-0.2c-3,2-6.1,2.4-9.6,2.4
					C528.2,172,517.8,158.7,524.6,148.5z"/>
				<path d="M552.7,158l-0.2,0c-2.2,6-11.3,7-16.3,3.8c-4.6-3-5.8-11.7-2.2-15.5l0-0.8c3.2-0.1,6.3,0.2,9.5,1.3
					c3.1,1,5.7,2.3,7.8,4.7l0.2-0.1C552.2,153.3,552.6,155.7,552.7,158z"/>
				<path class="st39" d="M549.3,169.5l0.3,0.2c-5.6,6.7-17.4,7.5-26,7.5l-0.8,0.5c-4.9-8.3-8.6-17.3-12.1-26.2l0.9-0.3
					c2.5-2.3,8.3-4.1,12.7-4.8l0.4,2.1c-6.8,10.3,3.7,23.5,15.1,23.5C543.2,171.9,546.3,171.5,549.3,169.5z"/>
				<path class="st211" d="M543.4,139.3c0.6,1,1.4,1.9,1.6,3c-1.8-1.6-4.3-2.7-6.5-3.8c-4.4-2.2-8.9-4.2-13.8-5.2
					c-2.4-0.5-4.7-0.8-7-1.4c-1.7-0.4-4.6-0.9-6.2-0.1c-0.1-2,0-4,0-6c0-1.6-0.5-4.5,0.1-5.9l0.5-0.6c2-0.7,5.2,0,7.1,0.5
					c5.6,1.4,11.3,4.5,15.8,8.1c2.4,1.9,4.5,4.4,6,7.1C541.9,136.5,542.6,137.9,543.4,139.3z"/>
				<path d="M462.5,172.3c0.3,1.8,0.4,3.5,0.4,5.2h-0.2c-2.4,6.5-13.5,5.5-17.2,1.2c-3.6-4.3-5.8-12.7-3.6-17.8l-0.1-0.4
					c1.6-0.3,3.2-0.6,4.8-0.8c3.5-0.4,8.6-2.4,12-1.3C462,160.8,462,168.7,462.5,172.3z"/>
				<path class="st210" d="M462.8,177.5h0.2c0,4.7-1.2,9.2-4,12.7l-1.7,0.1c-2.9,0.8-6.5,0.3-9.3-0.4c-10.2-2.4-17.7-16.7-13.5-26.6
					l-0.2-0.5c2.5-0.9,5-1.6,7.6-2.2l0.1,0.4c-2.2,5,0,13.5,3.6,17.8C449.3,183,460.4,184,462.8,177.5z"/>
				<path class="st39" d="M427.3,200.2L427.3,200.2c-3.9,0.7-9.3-5.8-11.1-8.8c-2-3.4-3.6-9-3.4-13c0.7-1.4,1.5-2.8,2.9-4
					c3.1-2.8,6.6-5.4,10.2-7.6c2.6-1.6,5.5-3,8.5-4.1l0.2,0.5c-4.3,9.9,3.3,24.2,13.5,26.6c2.8,0.7,6.4,1.2,9.3,0.4l1.7-0.1
					c-1.7,2.1-4,3.9-7,5.1C443.9,198.7,435.9,200.2,427.3,200.2z"/>
				<path class="st211" d="M406.9,162.2l-0.4-0.2c3.2-8.5,11.5-20.2,19.5-25c2.5-1.5,9.4-6,12.5-5.4c3.2,0.7,5.5,7.4,5.4,10.8
					c-11.4-0.7-29.6,13.3-34.5,22.9C407.6,164.6,406.5,163.4,406.9,162.2z"/>
				<path class="st206" d="M312.5,263.1c-0.2-5.4,0.7-10.8,2.5-15.8c-4.9,0.6-7.9-5.6-7.9-10.5c0-3.8,0.9-7.5,2.2-11.1
					c2.2-5.9,5.8-11.5,9.4-16.8c-3.7-1.2-5.3-5.8-4.5-9.6c0.9-3.8,3.5-6.9,6-9.8c2.6-2.9,5.2-5.9,6.2-9.7c-2,3.1-7.5,0.5-7.9-3.2
					c-0.4-3.7,2.3-6.9,4.9-9.6c10.1-10.6,21.6-20.5,35.5-25.4c13.6-4.9,29.9-4.3,41.5,4.3c2.2,6.6,2,14-0.5,20.6
					c-0.5,1.2-1,2.4-1,3.7c0,1.1,0.4,2.1,0.8,3.1c2.4,5.7,5.3,11.2,7,17.2s2,12.6-0.8,18.1c-1-0.2-2.1-0.4-3.1-0.7
					c2.4,10.1,4,20.3,4.6,30.6c0.1,2.6-0.8,6.2-3.4,5.8c2.2,8.8,4.5,17.8,3.4,26.8c-0.3,2.7-0.9,5.4-0.9,8.1
					c0.1,2.9,0.9,5.6,1.3,8.5c0.8,5.6,0,11.3-2.3,16.4c-0.1,0.2-0.1,0.3-0.2,0.5c-0.9,1.9-3.4,4-4.9,2.4c3.3,5.4,4.3,12.2,2.6,18.4
					c-1.1,3.9-4,8-8.1,7.9c0.1,0.5,0.1,0.9,0.1,1.4c0.3,7.1-6.9,13.4-14.2,14c-1.7,0.1-3.3,0.1-4.9-0.1c-6-0.9-11.7-4-16.8-7.4
					c-1.6,4.6-7.3,6.8-11.9,5.5c-4.6-1.3-8.1-5.2-9.9-9.6c0,0,0-0.1-0.1-0.1c-1.9-4.5-2.3-9.3-2.8-14.1c-1.2,0.6-2.4,0.6-3.5,0.2
					c-2.3-0.8-4.4-3.3-5.6-5.6c-1.7-3.3-3.1-6.8-4.1-10.4c-2.5-8.9-2.8-18.4-0.7-27.3c-2.7,1.4-5.3-2-6.3-4.9
					C313.3,270.9,312.6,267,312.5,263.1z"/>
				<path class="st212" d="M376.1,348.5L376,349c-0.8,2.6-5.7,6.9-7.7,9.7c-3.1,4.5-6.1,9.7-8.4,14.6c-2.3,5-4,10.8-5.4,16.2
					l-0.8-0.2c-8.7,11.2-13.6,24.2-20,36.8c-7,13.9-11.9,29-13.4,44.4c-0.3,3-0.4,6-0.5,9l-0.6,0h-23.5c0.1-8.6,0.7-17.4,2-25.8
					c0.7-4.7,2-9.6,4.2-13.8c2-3.8,4.6-7.6,5.9-11.7c2.9-8.7,4-16.6,3.1-25.7c-0.9-9.5-3-19.3-11.3-25.2c-0.8-0.6-1.7-1.1-2.5-1.4
					l0.6-1.3c10.1-2.9,19.2-16.6,22.3-29.6c2.3-1.1,4.7-2.2,7-3.3c1.9-0.9,9.3-3.3,9.7-4.5l0.8-0.3c1.9,4.4,5.3,8.4,9.9,9.6
					c4.6,1.3,10.3-0.9,11.9-5.5C364.4,344.5,370.1,347.7,376.1,348.5z"/>
				<path class="st212" d="M322.9,329.5c2.9-1.7,5.6-3.4,8.1-5.2l0.1-1.4c1.1,0.4,2.3,0.4,3.5-0.2c0.4,4.8,0.9,9.7,2.8,14.1
					c0,0,0,0.1,0.1,0.1l-0.8,0.3c-0.3,1.2-7.7,3.6-9.7,4.5c-2.3,1.1-4.7,2.2-7,3.3c1.3-5.1,1.6-10.1,0.7-14.3
					C321.5,330.4,322.2,330,322.9,329.5z"/>
				<path class="st212" d="M331.1,322.9l-0.1,1.4c-2.5,1.8-5.2,3.5-8.1,5.2c-2-0.4-4.1-0.8-5.9-1.5c-3.7-1.4-8.1-6.1-11-6.8
					l-2.3-0.4c1.8-1.3,3.3-2.3,4-2.9c4.2-3.4,10-6.7,13.2-11l0.5-0.1c1,3.6,2.4,7.1,4.1,10.4C326.8,319.6,328.9,322.1,331.1,322.9z"
					/>
				<path class="st212" d="M231.9,281.6L231.9,281.6c-1.6-1.2-2.6,1.1-2.8,2.3c-0.4,2-0.2,4,1,5.7c2.5,3.4,8.5,4.6,12.7,4.3
					c5.2-0.4,8.5-3.6,12.5-6.5c2.4-1.8,4.4-4.3,7-5.9c2-1.3,4.4-1.7,6.7-2c2.4-0.3,4.8-0.2,7.2,0c2.1,0.2,4.1,1.2,6.1,1.3
					c-1.6-3.3-3.4-5.7-6.8-7.3c-3.6-1.7-7.7-1.6-11.5-0.8c-8,1.8-14.8,6.9-22.5,9.1C239.1,282.4,234,283.6,231.9,281.6z
					 M265.7,373.1c4.3-2,8-7.1,8.7-11.6c0.3-2.3-0.4-5.6-2.2-7.2c-1.9-1.6-4.7-1-6.9-0.5c-3.3,0.7-6.1,2.1-9.1,3.5
					c-2.7,1.2-5.9,2.3-8,4.4l-0.1-0.1c-1.8,0.6-2.4,3.4-2.3,5.2c0,2.7,1.6,4.2,3.9,5.2c4,1.8,9.5,2.7,13.9,1.7
					C264.3,373.6,265,373.4,265.7,373.1z M273.4,320.6c6-1.8,13-3.9,18.3-7.7c0,0,0,0,0,0c1.3-0.9,2.5-1.9,3.5-3.1
					c3.5-3.8,7.8-8.5,5.3-14c-1.1-2.3-4.2-3.8-6.3-5c-2.6-1.5-5-2-8-2.5c-4.5-0.8-9.2-0.4-13.7,1c-7.7,2.2-14.9,7.2-19.4,13.6
					l0.4,0.3c1.6,4.1,3.4,8.2,7.5,11.1c3.6,2.6,7.6,5.4,12.2,6L273.4,320.6z M219.1,346.5c0.7-4-1.6-8.6-3.9-11.7
					c-1.4-1.9-3.5-3.8-5.4-5c-1.7-1.1-3.4-1-5.3-1c-3.7,1.1-6.8,3.1-10.2,5c-1.1,0.6-2.1,1.3-3.1,1.9l0.1,0.1c-2.5,3-3,7.7-2,11.5
					c1.3,4.9,4.1,8.3,8.7,10.3c2.2,1,4.9,0.4,6.8,1.2l0.6,1c3.2-2.2,6.1-4.6,8.5-7.1c1.8-1.8,4-3.8,4.8-6.2L219.1,346.5z
					 M186.9,383.4c-0.1,0.1-0.3,0.1-0.4,0.2c-10.5,5.6-20.2,13.3-29.6,20.6c-3.7,2.8-7.1,6-10.5,9.3c-2.4-4-3.9-8.9-3.8-13.5
					c0-4.9,2.6-10.5,2-15.3c-0.5,0-1.1-0.1-1.7-0.1c0-0.1,0-0.1,0-0.3c-2.8-1.9-7-0.9-10.3-1c1.3-4.6,3.3-10.3,5.9-14.2
					c-2,0.4-4.3,1.5-6.3,1.4c0.8-2.8,2.3-6,4.2-8.3c-2.1-0.9-4.9,0.2-6.9,1c0.4-5.4,2.4-8.4,5.8-12.3c-3.4-0.4-6.2,2.2-9.1,2.7
					c0.5-5.1,4.5-12.2,8.9-15c-13.3,0.9-25.3,5.5-37.6,10.6c-12.1,5-22.1,14.8-27.3,26.8c-0.5-8.3,3.2-17.6,5.9-25.4
					c5.8-16.8,17.1-30,33.7-37.1c6.1-2.6,13.2-5.5,19.8-6.3c2.3-0.3,5.3-0.6,8.3-0.8l0-0.2c-0.3-8,10.2-17.9,14.7-23.9
					c3.1-4.2,5.8-8.7,9-12.7c2.7-3.4,5.3-8.3,5.4-12.6c3.2,0.8,5.4,7.6,7.3,10.2c5.6-3.4,16.2-6.7,16-15.1c1,4.9,3.9,10.1,1.4,15.1
					c4.4-2.3,15.3-10.1,13.3-16.2c2.1,2.8,4.3,5.3,4,8.9c3.3-2,8.6-6.6,9.3-10.6c-0.4,4.9,8.1,7.9,10.3,11.5
					c0.2-18.6,9.2-33.5,21.2-47.2c7.4-8.4,16.3-15.9,25.1-22.9c0.8-0.6,1.9-1.9,3-2.9l1.6,0.1c-4.1,5.6-4.5,15.6-4.8,22.3
					c-0.4,9.4-0.8,19.5,0.1,28.8c0.5,4.4,1.6,8.5,2.4,12.9l0.5,0.4c2.7-3.2,5.9-5.9,9-6.6c-2.3,3.9-3,8.8-1.7,13.1
					c2.7-1.9,5.5-3.3,8.8-4.2c0.3,2.2,0.2,5.5-0.8,7.6c3.6-1.2,7-3.6,10.5-5c-1.3,3.6,1.7,7.6,3.3,10.6c1.8-1.7,3.5-3.3,5.5-4.8
					c0.1,3.9,0.8,7.9,2,11.6c0.9,2.9,3.6,6.2,6.3,4.9c-2.1,9-1.8,18.5,0.7,27.3L321,307c-3.2,4.3-9,7.6-13.2,11
					c-0.8,0.6-2.2,1.7-4,2.9l2.3,0.4c2.9,0.6,7.3,5.4,11,6.8c1.8,0.7,3.9,1.1,5.9,1.5c-0.7,0.4-1.5,0.9-2.2,1.3
					c0.9,4.2,0.6,9.2-0.7,14.3c-3.2,12.9-12.2,26.6-22.3,29.6l-0.6,1.3c-4.7-2-9.9-0.9-13.5,2.8c-5.2-1.5-14.3-0.2-17.3,4.1
					c-0.1,0.2-0.2,0.3-0.3,0.5c-0.4,0.7-0.6,1.5-0.7,2.3l-0.1,0.1c-1.1-0.9-2.6-1.3-4.9-0.8c-5.3,1.3-12.6,7.5-14.6,12.7l-1.4-0.7
					c-3.7-0.5-7.1,2.4-9.4,5.9l-1.2,0.1c-5.3,3.3-18.2,1.1-24.2,0c-4.6-0.8-8.5-2.3-12.1-4.3c-2.8-1.5-5.4-3.3-8.1-5.3
					c-1.2-0.9-2.4-1.8-3.7-2.8h-0.1C185.6,388.1,186.1,385.6,186.9,383.4z M197.2,314.8c0-2.1,0-4.5-1.6-6.1c-1.7-1.7-4.5-1.2-6.4,0
					c-0.8,0.5-3.2,2.7-2.9,3.6c-2.8,2.7-5.6,4.5-9.2,6c-3.1,1.3-6.9,2-9.8,3.8c-2.9,1.8-5.3,5.9-6.5,9c-1.4,3.5-2.4,7.2-2.8,11
					c-0.3,2.3,0.5,8.7,2.8,9.9c0-2.7,0.8-5.5,1.4-8.1c0.7-2.8,1.4-5.7,2.9-8.2c3.2-5.1,7.8-6,13.3-7.6c5.2-1.5,11.1-3,15.3-6.6
					C196,319.5,197.2,317.9,197.2,314.8z"/>
				<path class="st213" d="M307.1,236.7c0,5,3,11.1,7.9,10.5c-1.9,5-2.7,10.4-2.5,15.8c-2,1.6-3.7,3.1-5.5,4.8
					c-1.6-2.9-4.6-7-3.3-10.6c-3.6,1.4-6.9,3.8-10.5,5c1-2.1,1.1-5.4,0.8-7.6c-3.2,0.9-6,2.3-8.8,4.2c-1.3-4.3-0.7-9.2,1.7-13.1
					c-3.1,0.7-6.3,3.4-9,6.6l-0.5-0.4c-0.8-4.3-1.9-8.5-2.4-12.9c-1-9.3-0.6-19.4-0.1-28.8c0.3-6.7,0.8-16.8,4.8-22.3l-1.6-0.1
					c0.8-0.6,1.6-1.1,2.3-0.9c1.4,0.2,3.2,3.7,4.1,4.8c3,3.7,6.7,6.8,9.8,10.5c6.2,7.1,11.5,14.7,13.7,23.1l1.3,0.3
					C308,229.2,307.1,232.9,307.1,236.7z"/>
				<path class="st212" d="M265.2,385.8l0.1-0.1c0-0.9,0.3-1.6,0.7-2.3c0.1-0.1,0.2-0.3,0.3-0.5c3-4.3,12-5.6,17.3-4.1
					c3.6-3.8,8.9-4.8,13.5-2.8c0.9,0.3,1.7,0.8,2.5,1.4c8.3,5.9,10.4,15.6,11.3,25.2c0.9,9.1-0.3,17-3.1,25.7
					c-1.4,4.1-3.9,7.9-5.9,11.7c-2.2,4.2-3.5,9.1-4.2,13.8c-1.3,8.4-1.9,17.2-2,25.8h-51.9c1.9-5.5,1.3-13.3,1.8-18.6
					c0.6-5.8,1.1-12,0.3-17.9c-0.9-6.8-7.1-10-10.6-15.7c-3.8-6.1-5.8-10.7-3.7-17.9c0.6-1.9,1.7-4.3,3.1-6.5
					c2.4-3.5,5.7-6.4,9.4-5.9l1.4,0.7c2-5.2,9.3-11.4,14.6-12.7C262.6,384.5,264.1,384.9,265.2,385.8z"/>
				<path class="st214" d="M300.6,295.8c2.5,5.5-1.8,10.2-5.3,14c-1.1,1.1-2.3,2.2-3.5,3.1c0,0,0,0,0,0c-1.7,0.5-4.9,0.1-6.7-0.3
					c-10.6-2-16.3-13.1-12.3-22.8l-0.2-0.5c4.5-1.3,9.2-1.7,13.7-1c2.9,0.5,5.4,1.1,8,2.5C296.4,292,299.6,293.5,300.6,295.8z"/>
				<path class="st39" d="M285.1,312.6c1.8,0.3,4.9,0.8,6.7,0.3c-5.3,3.8-12.3,5.9-18.3,7.7l-0.1-0.3c-4.5-0.7-8.5-3.5-12.2-6
					c-4.1-2.9-5.9-7-7.5-11.1l-0.4-0.3c4.5-6.4,11.7-11.4,19.4-13.6l0.2,0.5C268.8,299.5,274.5,310.6,285.1,312.6z"/>
				<path class="st215" d="M275.5,273.4c3.5,1.6,5.2,4,6.8,7.3c-2-0.1-4.1-1.1-6.1-1.3c-2.4-0.2-4.8-0.3-7.2,0
					c-2.3,0.3-4.6,0.8-6.7,2c-2.6,1.6-4.5,4.1-7,5.9c-4,3-7.3,6.1-12.5,6.5c-4.2,0.3-10.2-0.9-12.7-4.3c-1.2-1.7-1.4-3.7-1-5.7
					c0.2-1.2,1.1-3.4,2.7-2.2l0.1-0.1c2.1,2,7.2,0.8,9.6,0.1c7.8-2.2,14.5-7.3,22.5-9.1C267.8,271.8,271.9,271.7,275.5,273.4z"/>
				<path class="st213" d="M265.7,373.1c-0.7,0.3-1.4,0.6-2,0.7c-4.4,1-9.9,0-13.9-1.7c-2.4-1-3.9-2.5-3.9-5.2
					c0-1.7,0.5-4.5,2.3-5.2l0.1,0.1c2.1-2.1,5.3-3.2,8-4.4c3-1.4,5.8-2.7,9.1-3.5c2.2-0.5,5-1.1,6.9,0.5c1.8,1.5,2.5,4.9,2.2,7.2
					C273.7,365.9,270,371,265.7,373.1z"/>
				<path class="st212" d="M246,443c0.8,5.9,0.2,12-0.3,17.9c-0.5,5.4,0.1,13.1-1.8,18.6h-55.2l-0.3,0c0.2-2.8,0.6-5.9,0.4-8.2
					c-1.9,1.2-3.8,3.5-5.9,4c-0.6-3.1,2.7-6.9,4.5-9.3c2.1-2.9,4.4-6.9,7.3-9.3c0.5-0.2,0.9-0.5,1.3-1c-0.5,0.3-0.9,0.6-1.3,1
					c-3.7,1.3-10-5.2-11.7-7.6c-1.6,1.9-2,4.5-2.6,6.7c-4.4-2.4-9.6-8.8-12.2-15.3c5.8-8.5,11.3-17.1,17.2-25.6
					c3.8-5.5,7.9-10.9,12.1-16.2c3.6,2,7.5,3.5,12.1,4.3c6,1.1,18.9,3.3,24.2,0l1.2-0.1c-1.5,2.2-2.6,4.6-3.1,6.5
					c-2.1,7.2-0.1,11.9,3.7,17.9C238.9,432.9,245.1,436.2,246,443z"/>
				<path class="st214" d="M215.3,334.9c2.3,3.1,4.5,7.7,3.9,11.7l-0.3,0c-0.9,2.4-3,4.4-4.8,6.2c-2.5,2.5-5.4,4.9-8.5,7.1l-0.6-1
					c-1.9-0.8-4.6-0.2-6.8-1.2c-4.6-2.1-7.4-5.5-8.7-10.3c-1-3.8-0.5-8.5,2-11.5l-0.1-0.1c1-0.7,2-1.3,3.1-1.9
					c3.3-1.9,6.4-3.9,10.2-5c1.9,0,3.6,0,5.3,1C211.8,331.1,213.9,333,215.3,334.9z"/>
				<path class="st212" d="M186.1,396.8c1.1-1.1,2.2-2.2,3.3-3.3c2.7,2,5.3,3.8,8.1,5.3c-4.2,5.3-8.3,10.7-12.1,16.2
					c-5.8,8.5-11.4,17.1-17.2,25.6c-1.5-3.8-2.2-7.7-1.2-10.7c-2.4,2.2-3.6,6.6-4.6,9.5c-2.8-2.5-5-6-6.5-10
					c6.9-8.1,14.1-16,21.6-23.6C180.3,402.8,183.2,399.8,186.1,396.8z"/>
				<path class="st215" d="M186.3,312.3c-0.4-1,2-3.1,2.9-3.6c1.8-1.2,4.7-1.7,6.4,0c1.6,1.6,1.6,4,1.6,6.1c0,3.1-1.2,4.7-3.5,6.7
					c-4.2,3.6-10.2,5.1-15.3,6.6c-5.5,1.6-10,2.4-13.3,7.6c-1.5,2.5-2.3,5.4-2.9,8.2c-0.6,2.6-1.4,5.4-1.4,8.1
					c-2.3-1.2-3.1-7.6-2.8-9.9c0.4-3.8,1.4-7.5,2.8-11c1.2-3.1,3.6-7.2,6.5-9c2.9-1.8,6.7-2.5,9.8-3.8
					C180.7,316.8,183.6,315,186.3,312.3z"/>
				<path class="st212" d="M189.3,393.5c-1.1,1.1-2.2,2.2-3.3,3.3c-0.4-1.9-0.6-4-0.5-6.1h0.1C186.9,391.6,188.1,392.6,189.3,393.5z
					"/>
				<path class="st212" d="M186.6,383.6c0.1-0.1,0.2-0.1,0.4-0.2c-0.9,2.2-1.3,4.7-1.4,7.3c-0.1,2.1,0.1,4.2,0.5,6.1
					c-2.9,3-5.8,6.1-8.6,8.9c-7.5,7.6-14.7,15.5-21.6,23.6c-2.8-7-3.5-15.3-2.2-21.4c-2.5,2-4.7,4.3-6.2,7.1c-0.3-0.5-0.6-1-0.9-1.5
					c3.4-3.3,6.9-6.5,10.5-9.3C166.4,396.9,176.1,389.2,186.6,383.6z"/>
				<path class="st213" d="M142,384.6L142,384.6c-1.5,2.2-10.9,1-13.9,1c-11.3,0-23.3,0.4-34.4-1.7c-6-1.2-19.5-2.3-23.5-7.7
					l0.2-0.1c5.1-12.1,15.1-21.8,27.3-26.8c12.3-5.1,24.3-9.7,37.6-10.6c-4.4,2.8-8.4,9.9-8.9,15c3-0.5,5.7-3.1,9.1-2.7
					c-3.4,3.9-5.4,6.9-5.8,12.3c1.9-0.8,4.8-1.9,6.9-1c-1.9,2.3-3.4,5.5-4.2,8.3c1.9,0.1,4.3-1.1,6.3-1.4c-2.7,3.9-4.7,9.6-5.9,14.2
					c3.3,0.1,7.5-0.8,10.3,1c0,0.1,0,0.2,0,0.3c-0.1,0-0.3,0-0.4,0c0,0,0,0,0,0C142.3,384.6,142.2,384.6,142,384.6z"/>
			</g>
			<g>
				<path class="st216" d="M444.5,113.9c3.7-1.8,5.5-6.5,4.5-10.5c-1-4.3-4.5-7.6-8.4-9.6c-3.9-1.9-8.3-2.7-12.6-3.5
					c7.3-2.7,15.7-2.1,22.6,1.6c6.8,3.7,11.9,10.5,13.6,18.1c4.7-1.5,7.8-7,6.6-11.8c4.3,3.1,7.1,8.1,7.4,13.4
					c7.1-5.8,16.6-8.6,25.7-7.6c-4.3,1.8-7.8,5.5-9.2,10c10.4-4.6,22.6-4.6,33.1-0.2c0.6,0.3,1.3,0.6,1.9,0.9"/>
				<path class="st216" d="M444.5,113.9c-0.2,0.2-0.4,0.3-0.7,0.3C444.1,114.2,444.3,114.1,444.5,113.9z"/>
				<path class="st216" d="M401.8,145.8c5.9-5.1,11-11.3,14.8-18.2c-0.4,1.3,1.1,2.7,2.5,2.6c1.4-0.1,2.6-1,3.7-2
					c7-6.5,11-16.2,10.8-25.8c3.9,1.8,7.4,4.4,10.2,7.6c1,1.1,1.5,3.1,0.7,3.8"/>
				<path class="st216" d="M528,113.4c10.4-4.4,22.1-5.6,33.2-3.4c-2.1,1-4.1,2.1-6.2,3.2c14.4,5.5,26.4,17.1,32.3,31.3
					c-2.4-0.9-4.7-1.8-7.1-2.8c7.8,7.8,12.3,18.8,12.1,29.8c-1.6-1.6-3.3-3.3-4.9-4.9c3.4,6.6,2.8,15.2-1.5,21.3"/>
				<path class="st216" d="M545.5,128.5c10.8,6.5,14.4,20.4,14.9,32.9c0.1,2.1,0.1,4.3,1,6.3c0.8,1.7,2.1,3,3.3,4.3
					c6.2,6.2,12.8,12.1,19.6,17.6c6.2,5.1,12.7,9.8,19.3,14.3"/>
				<path class="st216" d="M400.8,146.2c-0.2-0.1-0.3-0.2-0.5-0.3c-11.6-8.7-27.8-9.2-41.5-4.3c-13.8,5-25.3,14.8-35.5,25.4
					c-2.6,2.7-5.2,5.9-4.9,9.6c0.4,3.7,5.9,6.3,7.9,3.2c-1,3.8-3.6,6.8-6.2,9.7c-2.6,2.9-5.2,6-6,9.8c-0.8,3.8,0.8,8.4,4.5,9.6
					c-3.5,5.3-7.1,10.9-9.4,16.8c-1.3,3.6-2.2,7.2-2.2,11.1c0,5,3,11.1,7.9,10.5c-1.9,5-2.7,10.4-2.5,15.8c0.1,3.9,0.8,7.9,2,11.6
					c0.9,2.9,3.6,6.2,6.3,4.9c-2.1,9-1.8,18.5,0.7,27.3c1,3.6,2.4,7.1,4.1,10.4c1.2,2.3,3.3,4.8,5.6,5.6c1.1,0.4,2.3,0.4,3.5-0.2
					c0.4,4.8,0.9,9.7,2.8,14.1c0,0,0,0.1,0.1,0.1c1.9,4.4,5.3,8.4,9.9,9.6c4.6,1.3,10.3-0.9,11.9-5.5c5.1,3.4,10.8,6.6,16.8,7.4
					c1.6,0.2,3.3,0.3,4.9,0.1c7.3-0.6,14.5-6.9,14.2-14c0-0.5-0.1-0.9-0.1-1.4c4,0.1,7-4,8.1-7.9c1.7-6.1,0.7-12.9-2.6-18.4
					c1.4,1.6,4-0.5,4.9-2.4c0.1-0.2,0.2-0.3,0.2-0.5c2.3-5.1,3.1-10.9,2.3-16.4c-0.4-2.8-1.2-5.6-1.3-8.5c-0.1-2.7,0.5-5.4,0.9-8.1
					c1.1-9-1.2-18-3.4-26.8c2.6,0.4,3.5-3.2,3.4-5.8c-0.6-10.3-2.1-20.6-4.6-30.6c1,0.2,2.1,0.4,3.1,0.7c2.8-5.5,2.5-12.2,0.8-18.1
					s-4.6-11.5-7-17.2c-0.4-1-0.8-2-0.8-3.1c0-1.3,0.5-2.5,1-3.7c2.5-6.5,2.7-13.9,0.5-20.6c-0.2-0.7-0.5-1.5-0.8-2.2"/>
				<path class="st216" d="M406.5,162c3.2-8.5,11.5-20.2,19.5-25c2.5-1.5,9.4-6,12.5-5.4c3.2,0.7,5.5,7.4,5.4,10.8
					c-11.4-0.7-29.6,13.3-34.5,22.9c-1.8-0.7-2.9-1.9-2.5-3.2c0-0.1,0-0.1,0.1-0.2"/>
				<path class="st216" d="M511.6,120c-0.6,1.4-0.1,4.3-0.1,5.9c0,2-0.1,4,0,6c1.6-0.8,4.5-0.4,6.2,0.1c2.3,0.6,4.7,0.9,7,1.4
					c4.9,1,9.4,3,13.8,5.2c2.2,1.1,4.6,2.2,6.5,3.8c-0.2-1.2-1-2.1-1.6-3c-0.8-1.4-1.5-2.8-2.4-4.2c-1.6-2.7-3.6-5.2-6-7.1
					c-4.5-3.6-10.2-6.7-15.8-8.1c-2-0.5-5.1-1.3-7.1-0.5"/>
				<path class="st217" d="M509,147.2c-0.1-0.2-0.1-0.4-0.2-0.5c-3.2-7.2-12.3-12.2-19.9-12.8c-4.6-0.4-8.3,0.7-11.5,4.1
					c-2.9,3.2-6.2,6.9-6.8,11.4c-1.2,8.3,4.8,15.9,8.9,22.4c2.6,4.1,5.8,7.6,8.4,11.5c3.3,5,7.5,9.1,11.4,13.7
					c2.1,2.5,3.9,5.3,6.1,7.7c1.6,1.7,3.1,3.2,4.3,5.2c1.1,1.8,2,3.7,3.2,5.5c0.7,1.1,2.8,3.4,2.3,4.7"/>
				<path class="st217" d="M514.3,220.7c-4,0.4-8.1-1.9-12.3-1.7c-5.3,0.3-10.7,1.9-15.9,2.8c-10.8,1.8-21.5,7.5-29.8,14.7
					c-4.1,3.5-10.7,8.8-12.2,14.1c2.9,0.6,6.6-0.6,9.7-0.5c-0.8,2.8-5.3,6.2-7.2,8.6c-2.5,3.1-5,6.4-6.6,10
					c-2.4,5.5-4.3,12.6-3.9,18.6c3.4-2.1,5.6-5,9.5-6.5c-10.5,4.1-8.4,27.3-5.6,35.4c1.6-2.8,4.2-5,6.4-7.4
					c-4.6,6.3,2.8,20.1,7.5,26.1c0.4,0.5,0.7,0.9,1.1,1.3c4.2,4.8,10.3,7.4,15.7,10.4c4.6,2.6,8.9,4.9,14.1,6.1
					c22,4.9,48.1,4.5,69.5-3.4c12.2-4.5,24.5-9.7,35.9-16.3c5.8-3.3,11.3-7,16.5-11.2c12.3-9.8,18.2-27.3,23.5-41.7
					c4.2-11.4,5.4-24.5,3.5-36.5c-1.9-12.3-6.2-21.1-15.2-30.1c-4.1-4.1-9.4-6.8-15.1-8.6c-4.6-1.5-9.5-2.4-14.1-2.9
					c-10.5-1.1-22.9-2-33.1,0.9c-1.6,0.4-4.2,2.2-5.2,2.1"/>
				<path class="st217" d="M508.7,146.7c0.6,1.6,1.3,3.2,1.9,4.9c3.5,8.9,7.3,17.9,12.1,26.2c3.8,6.4,8.2,12.4,13.6,17.6
					c4.2,4,9.3,6.8,14,10"/>
				<path class="st218" d="M544.7,221c-15.7,0.4-36.9,14.9-37.8,31.9c-0.5,8.6,10.4,17.2,17.6,20.2c7.6,3.1,16.5,5,24.4,6.6
					c1.6,0.3,3.1,0.6,4.7,0.9c3.5,0.6,7,1.1,10.4,1c2.5-0.1,5-0.4,7.5-1.1c3.1-0.9,6-2.1,8.8-3.6c3.1-1.6,6-3.5,8.8-5.6
					c3.1-2.3,6-4.9,8.8-7.6c6.6-6.4,12-12.6,13.4-22c1-7,1.5-19.8-6.8-22.3c-9.2-2.7-20.1-1.5-29.6-0.7c-5.2,0.4-10.4,0.6-15.7,1
					c-0.1,0-7.7-1.2-14.3,1.4"/>
				<path class="st218" d="M580,276.3c0-5.6-0.3-15.6,6-18.1c8.1-3.2,5.6,9.6,3.1,13c0,0-0.1,0.1-0.1,0.1"/>
				<path class="st218" d="M564,280.7c0.2-5.5-6.4-13.4-11.7-14.4c-11.4-2-3.9,11,1.4,13.7"/>
				<path class="st219" d="M406,304.3c4.2,8,13.7,14.2,20.9,19.5c4.2,3,9.3,4.6,13.9,6.8c3.4,1.6,8.4,3.9,11.9,4"/>
				<path class="st219" d="M397.7,334.7c7.9,7.4,15.3,14.8,25.3,19.1c9.9,4.2,19.6,8.8,29.6,12.6c18.8,7.1,40.2,9.8,59.9,11.6
					c10.5,1,20.1,0.7,30.5-0.7"/>
				<path class="st219" d="M558.3,372.3c7.7,0,15.2-3.2,22.2-6.5c1.9-0.9,3.5-2,4.8-3.2c4.5-4.3,5.4-10.4,5.8-17.1
					c0.2-3.2,0.8-8.8-0.3-11.5"/>
				<path class="st220" d="M547.3,384.7c0.2,0.2,0.5,0.3,0.7,0.4c2.2,1,4.1,0.4,5.7-1.2c2.6-2.6,4.1-7.6,3.6-11.5
					c-0.3-1.8-0.9-3.4-2.2-4.3c-3.9-3-9.7-0.4-10.8,3.8c-0.3,1-0.3,3.1,0,5.2c0.4,3,1.4,6.2,3.1,6.8c0.1,0,0.2,0,0.2,0.1"/>
				<path class="st220" d="M548,385.3c-1.5,8.4-6.2,16.6-9,24.7c3.1,2.6,5.8,5.3,8.5,8.3c2.8,3.2,4.5,7.9,7.8,10.6
					c2.6-9.2,9.9-16.6,12.7-25.6c-4.1-1.5-6.2-6.8-8.6-10c-2.3-3-3.6-6.4-5.6-9.3c-0.1-0.2-0.3-0.4-0.4-0.6"/>
				<path class="st216" d="M376,349c-0.8,2.6-5.7,6.9-7.7,9.7c-3.1,4.5-6.1,9.7-8.4,14.6c-2.3,5-4,10.8-5.4,16.2
					c-0.1,0.5-0.3,1-0.4,1.5c-1.2,4.7-1.1,11.2-2.4,15"/>
				<path class="st216" d="M353.7,389.3c-8.7,11.2-13.6,24.2-20,36.8c-7,13.9-11.9,29-13.4,44.4c-0.3,3-0.4,6-0.5,9
					c0,0.2,0,0.3,0,0.5c-0.1,2.6-0.1,5.3-0.1,8"/>
				<path class="st216" d="M454.7,423c-1.2,3.9-0.7,9.2-0.7,13.6c0,6.9,0.1,13.7,0.5,20.6c0.3,6.1,2,12.7,3.4,18.7
					c0.3,1.5,0.8,2.9,1.4,4.3c1.3,3.4,2.9,6.7,3.8,10.2"/>
				<path class="st216" d="M496.7,430c0.8,11.5,1.3,23.1,1.3,34.7c0,4.6-0.1,10.2-0.6,15.5c-0.5,4.8-1.3,9.5-2.7,13.1"/>
				<path class="st216" d="M571.3,431.7c0,16.6-0.9,32.5-3.8,48.6c-0.7,3.8-1.5,7.7-2.4,11.5c-0.1-0.3,0-0.5-0.1-0.8"/>
				<path class="st216" d="M586.3,362.7c2.5,5.8,3.4,12.5,5.1,18.7c1.9,7,3.8,13.8,5.2,21c3.2,17.2,6.7,33.8,5.1,51.6
					c-0.6,6.7-1,13.5-2,20.1c-0.3,1.7-0.4,4-0.8,6.3c-0.4,3-1,6-2.3,7.7"/>
				<polyline class="st216" points="319.7,480 319.8,480 459.2,480.2 497.4,480.2 567.5,480.3 598.9,480.3 599.7,480.3 				"/>
				<path class="st221" d="M138,306.3c-0.3-8,10.2-17.9,14.7-23.9c3.1-4.2,5.8-8.7,9-12.7c2.7-3.4,5.3-8.3,5.4-12.6
					c3.2,0.8,5.4,7.6,7.3,10.2c5.6-3.4,16.2-6.7,16-15.1c1,4.9,3.9,10.1,1.4,15.1c4.4-2.3,15.3-10.1,13.3-16.2
					c2.1,2.8,4.3,5.3,4,8.9c3.3-2,8.6-6.6,9.3-10.6c-0.4,4.9,8.1,7.9,10.3,11.5c0-0.3,0-0.6,0-0.9"/>
				<path class="st221" d="M228.7,261.7c0-0.3,0-0.5,0-0.8c0.2-18.6,9.2-33.5,21.2-47.2c7.4-8.4,16.3-15.9,25.1-22.9
					c0.8-0.6,1.9-1.9,3-2.9c0.8-0.6,1.6-1.1,2.3-0.9c1.4,0.2,3.2,3.7,4.1,4.8c3,3.7,6.7,6.8,9.8,10.5c6.2,7.1,11.5,14.7,13.7,23.1"
					/>
				<path class="st221" d="M279.7,188c-4.1,5.6-4.5,15.6-4.8,22.3c-0.4,9.4-0.8,19.5,0.1,28.8c0.5,4.4,1.6,8.5,2.4,12.9"/>
				<path class="st221" d="M271.3,262.3c1.3-2.8,3.7-6.6,6.5-9.9c2.7-3.2,5.9-5.9,9-6.6c-2.3,3.9-3,8.8-1.7,13.1
					c2.7-1.9,5.5-3.3,8.8-4.2c0.3,2.2,0.2,5.5-0.8,7.6c3.6-1.2,7-3.6,10.5-5c-1.3,3.6,1.7,7.6,3.3,10.6c1.8-1.7,3.5-3.3,5.5-4.8
					c0.2-0.1,0.3-0.3,0.5-0.4"/>
				<path class="st221" d="M142.5,384.6c-0.1,0-0.1,0-0.2,0.1"/>
				<path class="st221" d="M150,307.3c-3.2-1-7.7-1-12-0.8c-3,0.2-5.9,0.5-8.3,0.8c-6.6,0.7-13.8,3.7-19.8,6.3
					c-16.6,7.1-27.8,20.3-33.7,37.1c-2.7,7.8-6.3,17.2-5.9,25.4c5.1-12.1,15.1-21.8,27.3-26.8c12.3-5.1,24.3-9.7,37.6-10.6
					c-4.4,2.8-8.4,9.9-8.9,15c3-0.5,5.7-3.1,9.1-2.7c-3.4,3.9-5.4,6.9-5.8,12.3c1.9-0.8,4.8-1.9,6.9-1c-1.9,2.3-3.4,5.5-4.2,8.3
					c1.9,0.1,4.3-1.1,6.3-1.4c-2.7,3.9-4.7,9.6-5.9,14.2c3.3,0.1,7.5-0.8,10.3,1c0,0.1,0,0.2,0,0.3c-0.1,0.1-0.2,0-0.4,0"/>
				<path class="st221" d="M70,376c0.1,0.1,0.1,0.2,0.2,0.3c4,5.3,17.5,6.5,23.5,7.7c11.1,2.1,23,1.7,34.4,1.7c3,0,12.4,1.2,13.9-1"
					/>
				<path class="st221" d="M194.6,456.7c-2.9,2.4-5.2,6.4-7.3,9.3c-1.7,2.4-5,6.1-4.5,9.3c2.1-0.5,4-2.9,5.9-4
					c0.2,2.3-0.2,5.5-0.4,8.2c-0.1,1.2-0.1,2.3,0,3.2"/>
				<path class="st221" d="M194.6,456.7c0.5-0.2,0.9-0.5,1.3-1C195.4,456.1,195,456.4,194.6,456.7z"/>
				<path class="st221" d="M141.7,384.7c0.1,0,0.2,0,0.3,0c0.2,0,0.3,0,0.5,0c0,0,0,0,0,0c0.1,0,0.3,0,0.4,0c0.6,0,1.2,0.1,1.7,0.1
					c0.7,4.8-1.9,10.4-2,15.3c0,4.6,1.5,9.5,3.8,13.5c0.3,0.5,0.6,1,0.9,1.5c1.5-2.8,3.7-5.1,6.2-7.1c-1.3,6.1-0.5,14.4,2.2,21.4
					c1.5,3.9,3.7,7.5,6.5,10c1-2.9,2.2-7.2,4.6-9.5c-1,3-0.3,6.9,1.2,10.7c2.6,6.5,7.8,12.9,12.2,15.3c0.6-2.3,0.9-4.9,2.6-6.7
					c1.6,2.4,8,8.9,11.7,7.6"/>
				<path class="st221" d="M244.3,397c-3.7-0.5-7.1,2.4-9.4,5.9c-1.5,2.2-2.6,4.6-3.1,6.5c-2.1,7.2-0.1,11.9,3.7,17.9
					c3.5,5.6,9.7,8.9,10.6,15.7c0.8,5.9,0.2,12-0.3,17.9c-0.5,5.4,0.1,13.1-1.8,18.6c-0.3,0.9-0.7,1.7-1.2,2.5"/>
				<path class="st221" d="M251,428c-6.2-1-7.1-25.5-5.3-30.3c2-5.2,9.3-11.4,14.6-12.7c2.2-0.5,3.8-0.2,4.9,0.8
					c2.2,1.9,2.7,5.9,3.2,9.2c0.5,3.1,1.7,6,2.3,9.1c0.3,1.4,0.3,3,0.3,4.4c0,0.4,0,2.2,0,2.8c0,0.2,0,0.3,0,0.3"/>
				<path class="st221" d="M265.3,385.7c0-0.9,0.3-1.6,0.7-2.3c0.1-0.2,0.2-0.3,0.3-0.5c3-4.3,12-5.6,17.3-4.1
					c1.1,0.3,2,0.7,2.6,1.3c7.4,6,7.7,20.3,7.1,29.1c-0.2-0.3-0.2-0.5-0.4-0.8"/>
				<path class="st221" d="M283.3,379c0.1-0.1,0.2-0.2,0.2-0.2c3.6-3.8,8.9-4.8,13.5-2.8c0.9,0.3,1.7,0.8,2.5,1.4
					c8.3,5.9,10.4,15.6,11.3,25.2c0.9,9.1-0.3,17-3.1,25.7c-1.4,4.1-3.9,7.9-5.9,11.7c-2.2,4.2-3.5,9.1-4.2,13.8
					c-1.3,8.4-1.9,17.2-2,25.8c0,0.5,0,1,0,1.5"/>
				<path class="st222" d="M190.7,378.3c-1.7,1.1-2.9,2.9-3.7,5.1c-0.9,2.2-1.3,4.7-1.4,7.3c-0.1,2.1,0.1,4.2,0.5,6.1
					c0.5,2.4,1.4,4.5,2.6,5.9"/>
				<path class="st222" d="M265.7,373C265.7,373,265.7,373,265.7,373c0.3,1.8,1.9,7.4,0.6,9.9c-0.1,0.2-0.2,0.3-0.3,0.5
					c-0.1,0.1-0.2,0.2-0.3,0.3"/>
				<path class="st222" d="M185.7,390.7c1.3,1,2.5,1.9,3.7,2.8c2.7,2,5.3,3.8,8.1,5.3c3.6,2,7.5,3.5,12.1,4.3c6,1.1,18.9,3.3,24.2,0
					"/>
				<path class="st222" d="M297.7,374.7c10.1-2.9,19.2-16.6,22.3-29.6c1.3-5.1,1.6-10.1,0.7-14.3c-0.1-0.5-0.2-1-0.4-1.5"/>
				<path class="st222" d="M306,321.3c2.9,0.6,7.3,5.4,11,6.8c1.8,0.7,3.9,1.1,5.9,1.5c2.7,0.5,5.3,0.8,7.1,1.5"/>
				<path class="st222" d="M175.8,360.5c0.6-10.7,6.8-18.9,15.4-24.7c1-0.7,2-1.3,3.1-1.9c3.3-1.9,6.4-3.9,10.2-5"/>
				<path class="st222" d="M191.3,335.8c-2.5,3-3,7.7-2,11.5c1.3,4.9,4.1,8.3,8.7,10.3c2.2,1,4.9,0.4,6.8,1.2"/>
				<path class="st222" d="M189.8,366.7c5.4-0.9,10.8-3.6,15.6-6.9c3.2-2.2,6.1-4.6,8.5-7.1c1.8-1.8,4-3.8,4.8-6.2"/>
				<path class="st222" d="M204.3,328.8c0.1,0,0.1,0,0.2,0c1.9,0,3.6,0,5.3,1c2,1.2,4.1,3.1,5.4,5c2.3,3.1,4.5,7.7,3.9,11.7
					c0,0.2-0.1,0.4-0.1,0.6"/>
				<path class="st222" d="M291.8,312.9c-5.3,3.8-12.3,5.9-18.3,7.7c0,0-0.1,0-0.1,0"/>
				<path class="st222" d="M252.5,304c0.2-0.4,0.5-0.8,0.8-1.1c4.5-6.4,11.7-11.4,19.4-13.6c4.5-1.3,9.2-1.7,13.7-1
					c2.9,0.5,5.4,1.1,8,2.5c2.1,1.2,5.2,2.6,6.3,5c2.5,5.5-1.8,10.2-5.3,14c-1.1,1.1-2.3,2.2-3.5,3.1"/>
				<path class="st222" d="M253.7,303.2c1.6,4.1,3.4,8.2,7.5,11.1c3.6,2.6,7.6,5.4,12.2,6"/>
				<path class="st222" d="M272.8,289.8c-4,9.7,1.7,20.8,12.3,22.8c1.8,0.3,4.9,0.8,6.7,0.3c0,0,0,0,0,0c0.1,0,0.1,0,0.2-0.1"/>
				<path class="st222" d="M186.3,312.3c0.2-0.2,0.4-0.4,0.7-0.7"/>
				<path class="st222" d="M186.3,312.3c-0.4-1,2-3.1,2.9-3.6c1.8-1.2,4.7-1.7,6.4,0c1.6,1.6,1.6,4,1.6,6.1c0,3.1-1.2,4.7-3.5,6.7
					c-4.2,3.6-10.2,5.1-15.3,6.6c-5.5,1.6-10,2.4-13.3,7.6c-1.5,2.5-2.3,5.4-2.9,8.2c-0.6,2.6-1.4,5.4-1.4,8.1
					c-2.3-1.2-3.1-7.6-2.8-9.9c0.4-3.8,1.4-7.5,2.8-11c1.2-3.1,3.6-7.2,6.5-9c2.9-1.8,6.7-2.5,9.8-3.8
					C180.7,316.8,183.6,315,186.3,312.3z"/>
				<path class="st222" d="M231.8,281.7c-1.6-1.3-2.5,1-2.7,2.2c-0.4,2-0.2,4,1,5.7c2.5,3.4,8.5,4.6,12.7,4.3
					c5.2-0.4,8.5-3.6,12.5-6.5c2.4-1.8,4.4-4.3,7-5.9c2-1.3,4.4-1.7,6.7-2c2.4-0.3,4.8-0.2,7.2,0c2.1,0.2,4.1,1.2,6.1,1.3
					c-1.6-3.3-3.4-5.7-6.8-7.3c-3.6-1.7-7.7-1.6-11.5-0.8c-8,1.8-14.8,6.9-22.5,9.1C239.1,282.4,234,283.6,231.8,281.7
					c0.1-0.1,0-0.1,0-0.2"/>
				<path class="st223" d="M248.2,361.7c-1.8,0.6-2.4,3.4-2.3,5.2c0,2.7,1.6,4.2,3.9,5.2c4,1.8,9.5,2.7,13.9,1.7
					c0.7-0.2,1.4-0.4,2-0.7c4.3-2,8-7.1,8.7-11.6c0.3-2.3-0.4-5.6-2.2-7.2c-1.9-1.6-4.7-1-6.9-0.5c-3.3,0.7-6.1,2.1-9.1,3.5
					C253.6,358.6,250.3,359.6,248.2,361.7c0.1,0.1,0,0.1,0,0.2"/>
				<polyline class="st221" points="188.7,479.5 243.8,479.5 295.7,479.5 319.2,479.5 				"/>
				<path class="st224" d="M552.4,313.5c-12.5-2.7-16.1,15.8-12.4,24.5c1,2.4,2,6.3,5,6.2c3.1-0.1,5.2-4.2,7.2-6.1
					c4.6-4.4,11.1-9.4,12.4-15.9c1.5-7.7-7.8-6.5-12.1-8.8"/>
				<path class="st225" d="M410.8,181.8c0.8-1.1,1.4-2.3,2-3.4c0.7-1.4,1.5-2.8,2.9-4c3.1-2.8,6.6-5.4,10.2-7.6
					c2.6-1.6,5.5-3,8.5-4.1c2.5-0.9,5-1.6,7.6-2.2c1.6-0.3,3.2-0.6,4.8-0.8c3.5-0.4,8.6-2.4,12-1.3c0.1,0,0.2,0,0.2,0.1"/>
				<path class="st225" d="M511.5,151.3c2.5-2.3,8.3-4.1,12.7-4.8c1-0.2,1.9-0.3,2.7-0.4c2.4-0.2,4.8-0.5,7.1-0.5
					c3.2-0.1,6.3,0.2,9.5,1.3c3.1,1,5.7,2.3,7.8,4.7"/>
				<path class="st226" d="M412.8,177.8c0,0.2,0,0.4,0,0.6c-0.2,4,1.5,9.7,3.4,13c1.8,3.1,7.2,9.5,11.1,8.9"/>
				<path class="st226" d="M426.5,200.3c0.3,0,0.5,0,0.8,0c8.7-0.1,16.6-1.6,24.7-4.9c3-1.3,5.3-3,7-5.1c2.8-3.5,4-7.9,4-12.7
					c0-1.7-0.1-3.5-0.4-5.2c-0.5-3.6-0.5-11.5-3.8-13.8c-0.1-0.1-0.2-0.1-0.3-0.2"/>
				<path class="st226" d="M523.5,177.3c8.6,0,20.4-0.9,26-7.5c1.8-2.1,3-4.9,3.2-8.4c0.1-1,0.1-2.1,0-3.3c-0.1-2.3-0.6-4.7-1.3-6.5
					c-0.1-0.2-0.1-0.3-0.2-0.4"/>
				<path class="st226" d="M525.3,147.5c-0.3,0.3-0.5,0.6-0.7,1c-6.8,10.3,3.7,23.5,15.1,23.5c3.5,0,6.6-0.5,9.6-2.4"/>
				<path class="st226" d="M434.5,163.3c-4.3,9.9,3.3,24.2,13.5,26.6c2.8,0.7,6.4,1.2,9.3,0.4"/>
				<path class="st226" d="M442,160.9c-2.2,5,0,13.5,3.6,17.8c3.7,4.4,14.8,5.4,17.2-1.2"/>
				<path class="st226" d="M534,146.3c-3.5,3.8-2.4,12.5,2.2,15.5c5,3.2,14.1,2.2,16.3-3.8"/>
				<path class="st225" d="M200.7,377.3c-4.3-0.4-10.1,4-13.7,6.1c-0.1,0.1-0.3,0.1-0.4,0.2c-10.5,5.6-20.2,13.3-29.6,20.6
					c-3.7,2.8-7.1,6-10.5,9.3c-5.8,5.6-11.4,11.4-17.5,16.2"/>
				<path class="st225" d="M200.3,383.3c-3.7,3-7.4,6.5-11,10.1c-1.1,1.1-2.2,2.2-3.3,3.3c-2.9,3-5.8,6.1-8.6,8.9
					c-7.5,7.6-14.7,15.5-21.6,23.6c-1,1.1-1.9,2.3-2.9,3.4c-2.5,3-5.3,6.5-8.3,9c-0.1-0.7,0.3-0.7,0.6-1.3"/>
				<path class="st225" d="M208.7,384.3c-3.7,4.8-7.5,9.6-11.3,14.4c-4.2,5.3-8.3,10.7-12.1,16.2c-5.8,8.5-11.4,17.1-17.2,25.6
					c0,0,0,0,0,0c-1.8,2.6-3.4,5.6-5.8,7.7c0.1-0.3,0.3-0.6,0.3-0.9"/>
				<path class="st225" d="M290,333c0-2.3,8.3-8.2,13.8-12c1.8-1.3,3.3-2.3,4-2.9c4.2-3.4,10-6.7,13.2-11"/>
				<path class="st225" d="M302,344.7c4.4-5.5,11.7-9.7,18.7-13.9c0.7-0.4,1.5-0.9,2.2-1.3c2.9-1.7,5.6-3.4,8.1-5.2"/>
				<path class="st225" d="M306.3,351.7c4.6-2.2,9.1-4.4,13.7-6.6c2.3-1.1,4.7-2.2,7-3.3c1.9-0.9,9.3-3.3,9.7-4.5"/>
			</g>
		</g>
	</g>
	<path class="st227" d="M177.6,362.5c1.3,1.5,3,2.6,4.8,3.5c1.3,0.7,2.6,1.4,4,1.5c1.5,0.2,2.9-0.2,4.3-0.7
		c5.3-1.7,10.4-4.1,15.1-7.2c-3-0.8-6-1.8-8.9-3c-1.3-0.5-2.6-1.1-3.6-2c-1.2-1.1-2.1-2.5-2.7-4c-1.8-4.2-2.1-8.9-1-13.3
		c-0.1,0.5-2.4,1.8-2.8,2.2c-1,0.9-1.9,1.8-2.8,2.7c-1.8,2-3.3,4.2-4.6,6.5C177.3,352.6,174.3,358.4,177.6,362.5z"/>
	<circle cx="207.4" cy="339.9" r="7.8"/>
	<circle cx="288.9" cy="297.3" r="7.8"/>
	<path class="st228" d="M173.7,380c-4.1-7.4-7.7-14-9.1-22c-2.1-1.3-4.1-2.7-5.7-4.7c-2.3-2.9-3.5-6.6-4.6-10.1
		c-1.5-5.2-3-10.4-3.3-15.8c-0.3-5.4,0.6-11,3.4-15.5c-1.1-1.8-2.7-3.3-4.6-4.3l2.4,106.5c4.7-1.4,9.8,0.5,14.7,0.4
		c6.9-0.1,13-4.1,18.6-8c1.1-0.8,2.3-1.8,2.3-3.1C180.3,397.5,178.2,388.2,173.7,380z"/>
	<path class="st228" d="M187.3,400.5c4.5,7,7.3,15.1,7.9,23.5c0.5-1,1.5-1.8,2.6-2.2c0,3.7,0.6,7.5,1.6,11.1
		c0.9-1.7,2.6-3.1,4.5-3.6c-1.7,4.1-1.3,9,0.9,12.8c0.9-1.7,2.6-2.9,4.4-3.4c0.8,3.9,2.3,7.7,4.4,11.2c0.5-1.5,1.2-3,2.1-4.3
		c3.4,8.3,9.7,15.4,17.5,19.9c1.9,1.1,3.9,2,5.5,3.5c2.7,2.6,3.6,6.5,4.5,10.2c-6.8,2-14.1-0.5-21.1-0.6c-2.9-0.1-5.9,0.3-8.8,0.5
		c-7.8,0.7-15.6,1-23.4,0.9c-0.3,0-0.7,0-0.9-0.2c-0.3-0.2-0.3-0.7-0.4-1.1c-0.2-2.3-0.4-4.7-0.5-7c-1.6,1.4-3.3,2.5-5.2,3.4
		c1.2-8.2,10-13.4,12-21.5"/>
	<path class="st228" d="M153.7,410.6c-1.7,4.9-1.3,10.4,0.3,15.3c1.6,5,4.2,9.5,7.2,13.8c1.5-3.3,3.4-6.5,5.5-9.5
		c-1.1,5,0.3,10.4,2.9,14.8c2.6,4.4,6.5,8,10.7,11c0.1-2.3,0.6-4.7,1.5-6.8c4.4,3.7,9.1,6.8,14.2,9.4c2.5-8.7-0.4-17.9-1.4-26.9
		c-0.6-5.3-0.6-10.7-1.5-15.9c-0.9-5.2-3-10.5-7-14c-4-3.5-10.3-4.7-14.8-1.8"/>
	<path class="st228" d="M140.6,305.6c-14.4,0.2-28.2,5.9-40.7,13c-2.6,1.4-5.1,2.9-7.2,5c-2.5,2.4-4.2,5.6-6.4,8.3
		c-2,2.5-4.5,4.6-6.2,7.3c-1.2,2-2,4.3-2.7,6.6c-1.9,5.8-3.7,11.6-5.6,17.4c-1.3,4.1-2.7,8.5-1.9,12.7c3.5-6.2,7.1-12.6,12.5-17.2
		c4-3.4,8.7-5.8,13.5-8c12.6-5.9,25.7-11.1,39.5-12.1c-4.8,4.1-10,9.3-9.3,15.6c2.9-1.7,6.1-2.8,9.3-3.2c-3.1,3.5-5.2,7.7-6.2,12.2
		c2.4-0.8,4.9-1.2,7.4-1.1c-2.2,2.6-3.6,5.9-4.2,9.3c1.9-1,3.9-1.5,6-1.6c-2.4,4.3-4.4,8.7-6,13.3c3.1-0.6,6.3-0.5,9.4,0.2
		c0.8,0.2,1.7,0.5,2.2,1.1c0.7,0.9,0.6,2.2,0.4,3.3c-1.6,9.3-3.3,19.7,2.1,27.5c1.5-3,3.5-5.8,5.8-8.2c1.9-2,4-3.9,5.3-6.3
		c3.6-6.4,1-14.3-1-21.4c-4.8-16.4-6.4-33.7-4.7-50.7c0.6-5.4,2.6-13.3,0.1-18.5C150.3,306.3,144.4,305.5,140.6,305.6z"/>
	<path class="st228" d="M234.9,402.5c-2.5,3.9-4.4,8.4-4,13c0.8,9.2,9.8,15.3,13.7,23.7c2.9,6,3,13,2.3,19.7s-2,13.3-1.9,20
		c7.2,0.8,14.5,1,21.8,0.6c-1.9-13.1-3.9-26.3-5.8-39.4c-0.1-1-0.3-2-0.8-2.9c-0.6-1-1.5-1.6-2.4-2.3c-3.8-2.7-7.5-5.6-9.8-9.6
		c-2.6-4.6-2.9-10.1-3-15.4c0-3.1,1.6-10.3-1.3-12.4C240.3,395.1,236.5,400.1,234.9,402.5z"/>
	<path class="st228" d="M265.5,384.7c-0.1,0.4-0.2,0.8-0.2,1.3c0.1,0.7,0.6,1.2,1,1.8c1.2,1.7,1.8,3.8,2.3,5.9
		c1.7,6.2,3.4,12.4,3.7,18.8c4.6-7.7,4.2-17.4,2.3-26.1c-0.4-1.6-0.8-3.3-1.8-4.6C269.8,378.1,266.6,381.4,265.5,384.7z"/>
	<path class="st228" d="M290.8,386.7c2.1,7.4,3.1,15.2,2.8,22.9c2.9-3.8,4.3-8.6,4.2-13.4c-0.1-4.8-1.5-9.5-3.9-13.6
		c-0.8-1.4-5.8-8.1-7.9-4.2c-0.8,1.5,1.1,2.1,2,3.1C289.5,382.9,290.2,384.7,290.8,386.7z"/>
	<path class="st228" d="M246,400.6c-0.5,5-0.8,10.1-0.1,15.1c0.8,5,2.7,9.9,6.2,13.5c-1.2-12.8-1.4-25.6-0.5-38.4
		c0.1-1.3-3.6,2.4-3.9,2.8C246.6,395.8,246.2,398.2,246,400.6z"/>
	<path class="st228" d="M252.9,436.8c0.2,0.2,0.6,0.4,0.7,0.1c0.6-2.1,0.1-4.3-0.5-6.4c-0.7-2.6-1.1-7.9-2.8-10
		c-1.4-1.7-3.2-1.1-3.8,0.9C244.9,426.2,249.7,433.7,252.9,436.8z"/>
	<path class="st228" d="M246.9,449c-1.2,5.8-1.9,11.7-1.9,17.6c0,1.8,0.1,3.7,1.2,5.2c0.1,0.1,0.2,0.3,0.4,0.3
		c0.4,0.1,0.6-0.4,0.7-0.7c1.9-5.8,3.8-11.7,4-17.8c0.1-3-0.4-6.2-2.5-8.4"/>
	<path class="st228" d="M302.2,461.7c0.7,2.5,0.9,5.1,0.7,7.6c5.7-4.9,8.8-12.6,8-20.1c0.4,4.6,0.9,9.3,1.3,13.9
		c2.8-4,5-8.4,6.3-13.1c0.6-2.1,1-4.4,0-6.3c0.3,3.7,0.7,7.4,1,11.1c1.3-2.7,2.5-5.5,3.8-8.2c-1.7,11.3-3.4,22.5-5.3,33.7
		c-7.4-0.9-14.8-0.2-22.1-0.9C294.6,473.8,299.7,466.5,302.2,461.7z"/>
	<path class="st228" d="M322.7,340.1c0.5,0.6,1.1,1.4,2,1.3c0.4,0,0.8-0.2,1.1-0.4c2.2-1.4,3.8-3.6,4.4-6.1c0.3-1.3,0.3-2.7-0.5-3.8
		c-1.2-1.6-3.7-1.5-5.7-1.6c-4-0.2-7.6-2.1-11-3.9c-2.1-1.2-5.2-3.8-7.8-3.4c-0.1,2.4,6.7,6.4,8.5,8
		C316.9,333.4,319.9,336.7,322.7,340.1z"/>
	<path class="st228" d="M318.3,360.4c3.7-7.6,4.9-16.3,3.6-24.6c-0.4,2.4-0.8,4.7-1.2,7.1c-0.7,4.4-1.5,8.9-3.4,13
		c-2.7,5.7-7.4,10.2-12,14.4c-2.3,2.2-4.9,4.3-8.2,4.7c4.9,2.9,8,0.5,12.1-2.9C313,368.8,316.1,364.9,318.3,360.4z"/>
	<path class="st228" d="M250.9,376.4c2.3,0.9,4.9,1.1,7.3,1.3c1.2,0.1,2.3,0.1,3.5-0.2s2.2-1,2.7-2.1c0.1-0.2,0.1-0.4,0.1-0.6
		c-0.1-0.6-0.8-0.7-1.4-0.8c-3.7-0.2-7.5,0.2-11.2-0.7c-2.5-0.6-5.4-3.6-7.7-3.5C244.7,373.1,248.1,375.4,250.9,376.4z"/>
	<path class="st228" d="M246.3,373.9c0.3,0.3,0.6,0.6,1.1,0.6c0.5-0.1,0.8-0.6,0.8-1.1c0.2-1.4-0.7-2.7-1.3-3.9
		c-0.7-1.4-2.2-6.8-3.8-3.7C241.8,368.2,244.8,372.3,246.3,373.9z"/>
	<path class="st228" d="M307.7,280.5c0.1,3.4,0.7,7,3.1,9.5c0.6-0.8,1.2-1.6,1.8-2.4c0,7.5,0.9,15,3.7,21.9
		c2.8,6.9,7.7,13.2,14.3,16.6c0.6,9.8,5.1,19.3,12.2,26c2.5,2.4,5.5,4.5,9,4.7c3.4,0.2,7.2-2.4,7.2-5.8c2.2,1.5,4.6,3,7.3,3.6
		s5.6,0.2,7.7-1.6c1.1-1,1.8-2.6,1.1-3.8c-0.4-0.6-1-1-1.7-1.3c-4.5-2.4-9-4.8-13.5-7.2c-1.5,2.5-3.6,4.5-6.2,5.8
		c-1,0.5-2.1,0.9-3.2,0.8c-1.3-0.1-2.4-0.9-3.4-1.6c-4.5-3.2-9.3-6.8-11.1-12.1c-1-3.1-0.9-6.5-1.1-9.8c0-0.6-0.1-1.3-0.6-1.7
		c-0.6-0.5-1.4-0.3-2.2-0.3c-1.5-0.1-2.6-1.4-3.5-2.6c-8.2-11-11.1-25.7-7.7-39c-3.6-0.3-5.4-4.5-6.2-8.1c-0.7-3.1-1.2-6.3-1.5-9.4
		c0-0.4-2.9,1.9-3.1,2.3c-0.7,1.2-0.9,2.9-1.2,4.2C307.9,272.9,307.6,276.7,307.7,280.5z"/>
	<path class="st228" d="M149.5,316.2c-0.9,1.2-1.9,2.4-3.3,2.8c-2.2,0.6-4.4-1.1-5.7-3c-3.5-5.3-2.8-12.5,0-18.3
		c2.7-5.7,7.2-10.5,11.2-15.4c3-3.7,5.8-7.6,8.4-11.6c1.5-2.4,4.4-10.2,7.1-10.9c1.6,3.7,0,10.7-0.5,14.7c-0.7,5.1-1.8,10.1-3.4,15
		C160.3,299.1,155.7,308.2,149.5,316.2z"/>
	<path class="st228" d="M155.3,294.8c1.7,1.4,1.8,3.9,1.6,6c-0.6,6.3-2.4,12.5-4.1,18.6c-0.8,2.9-1.7,5.8-3.2,8.4
		c-0.4,0.7-0.9,1.3-1.6,1.5c-1.5,0.3-2.4-1.7-2.7-3.2c-1-6.6-1.2-13.2-0.4-19.8"/>
	<path class="st229" d="M360,140.5c-6.8-0.3-15.5,8.1-20.8,12c-6.9,5.1-16.4,10.5-19,19c-1.2,4,0.6,15.2,6.8,8.7
		c-3.7,3.6-22.3,29-8.7,30.2c-9.4,4.7-17.7,33.6-3.4,35.7c-3.1,4.5-1.9,15.2-1.5,20.6c0.4,6.2,2.7,10.6,8.5,13.1
		c-3.4,6.4,1.3,47.2,12.6,42.3c-0.8,8.2,5.1,17.5,11.9,21.8c5.2,3.3,10.2,2.9,11.1-4c7.1,4.1,11.4,8.9,20.1,8
		c6.4-0.7,18.5-3.8,16.8-11.9c-3.7-0.3-5.2-0.4-8.7-1.9c-6.8-3-24.2-10.8-24.6-18.7c1.3,0.2,2.4-0.7,3.9,0.1
		c-2.5-5.2-8.2-9.5-11.4-14.5c-4.2-6.7-14.3-22.2-11.1-29.8c2,0.1,3.7,1.4,4.6,3.3c-2-5.7-1.8-12.4-2.7-18.4c-1-6.6-5.4-21-1-26.8
		c0.7,1,2.1,2.1,2.5,3.3c-0.5-7.9-3.2-15.5-4.6-23.2c-1.1-6.5-5-21.2,0.2-26.3c0.9,1.1,1.8,1.6,2.5,3c-1.9-7.8-0.7-18.2,2.3-25.7
		c1.6-4.1,8.4-18.7,13.1-12.7C359,145.5,358.7,143.1,360,140.5z"/>
	<path class="st229" d="M545,125.5c1.5-2.2,11.3,5.2,13.8,7.3c6.3,5.3,9,11.3,10.5,19.2c-1.6-0.7-3.2-1.6-4.6-2.5
		c6,6.3,11.6,13.2,10.7,22.5c-0.8-0.5-1.2-0.4-1.9-1.4c5.4,1.4,11.4,12.4,10.9,17.9c-2.8-0.1-4.4-3.4-6.2-5.4
		c-4-4.5-10.1-8.4-13.6-13c-4.5-5.9-4.2-16.5-6.6-23.4C556.9,143.4,545.3,125.8,545,125.5z"/>
	<path class="st229" d="M454.5,234.5c-4.8,2.7-9.1,7.6-13,11.5c-5,5-12.7,10.6-15,17.4c1.7-0.4,3.7-1.2,5.4-1.9
		c-6.5,12.2-10.1,23.2-9.4,37.4c1.8-2,3.5-4.6,6.4-5.4c0.5,10.1-2.1,20.5,5.4,28.8c0.4-0.7,0.7-0.9,1.1-1.4
		c4.6,5.2,7.8,11.5,14.9,13c-1.4-6.3-8.1-15.7-5.4-22.3c-5.7,7.9-7.6-1.1-8.5-7.2c-1.2-8,0.7-16,5.6-22.3c-1.8,1.7-3.9,3.3-6.1,4.4
		c-1-15.1,7.8-24.4,16.4-35.4c-2.3-0.1-4.5,0.2-6.5-1c0.8-5.5,4.9-12,9.6-15.1C456.2,235.2,456.5,235.7,454.5,234.5z"/>
	<path class="st229" d="M395,335c-9.8,6.9,24,21.6,27.3,23.7c23.9,15.5,52.1,23.5,80.5,25.8c7.9,0.6,15.9,0.9,23.8,1
		c3.9,0,9.9,1.5,13.4,0c0.4,6.2,0.6,6-2.4,11.5c-1.2,2.3-5.7,9.9-5.5,12.9c0.2,4.2,7.5,9.9,10,13.1c3.4,4.1,11.4,8.2,12.5,13.3
		c0.8-3.7,0.4-5.9-1.1-9.2c-3-6.4-8.7-8.2-12.7-13.1c-3.3-4.1-1.1-7.4,0.5-12c2-5.7,3.2-12.4,6.3-17.5c-2.1-2.1-3.3-4.5-3.7-7.4
		c-25.1,3-51.2,0.5-75.4-6.3c-5.9-1.7-11-4.5-16.9-5.8c-6.9-1.5-13.2-4.2-19.6-7.2c-6.5-3.1-13.1-6.2-19.2-10
		C409.1,345.4,394.4,336.8,395,335z"/>
	<path class="st229" d="M378.5,347c-6.2,5.3-10.8,10.6-14.4,18c-3.5,7.2-5.7,16.4-10.1,23c-10.8,15.9-20.2,34.8-27,53.7
		c-2.4,6.8-2.5,14.3-3.9,21.4c-1.1,5.7-2.8,12.4-2,18.3c9,0.5,18-1.4,27-1.4c18.9,0,37.5-1,56.4-2.1c12.5-0.7,24.9-0.7,37.5-0.9
		c7.1-0.2,11-1.4,17.5,1.9c-0.4-4.8-3.4-9.3-4.9-13.9c-1.9-5.7-2.7-12.1-3.4-18c-1.1-9-0.8-18.3-0.6-27.3
		c-10.5,3.7-25.7-13.9-31.9-20.5c-6.9-7.3-17.1-15-20.1-24.9c-1.9-6.4-2-14.3-1.2-21c0.5-3.8,4.6-13.5-2.4-11.9
		c-2.3,0.5-3.1,3.3-5.4,4.5C385.8,347.8,380.8,346.8,378.5,347z"/>
	<path class="st229" d="M392.5,351.5c0.8-7.4,6.4-6.8,11.4-4.4c6.3,3,13.9,5.8,19.3,10.4c8.6,7.3,5.1,22,5.6,32.2
		c0.4,8.2,0.2,17,2.8,24.9c2,6,10.2,13.3,10.4,18.9c-19.6,5.5-39.8-9.7-48.7-26.1C384.6,391.7,380.3,371.8,392.5,351.5z"/>
	<path class="st229" d="M442.5,423.5c5.7-0.5,10.8-5.2,12,2.2c1.7,9.8-0.5,20.8,0.4,30.7c0.6,7.1,1.9,14.1,3.4,21.1
		c1.7,8,3,12.3-6.4,15c-14.8,4.3-26.6,1.9-41.1-2.1c-9-2.5-18.5-2.7-27.6-5c-4.3-1.1-6.8-0.9-8.6-4.9c-2.8-6.2,2-13.1,5.9-17.2
		c6.8-7.2,15.6-11.5,24.5-15.4c3.4-1.5,7.2-2.8,9.9-5.5"/>
	<path class="st229" d="M569.5,433c-5.5-5.4-13.9,15.9-14.5,19.1c-0.8,4-1,8.2-1.6,12.4c-0.4,2.8-4.4,12.1-3,14.2
		c1.4,2.1,8.8,1.3,11.3,1.5c4.5,0.4,5,1,6.9-3.1c2.8-6,1-15.8,1-22.3c0-7.1-0.3-14.3,0.1-21.3C569.3,434.8,568.9,436.1,569.5,433z"
		/>
	<path class="st229" d="M421,363c-1.6-1.3-2.2-4.5,0.1-5.9c2.3-1.4,5,1.3,6.9,2.2c6.6,3.1,7.6,5.5,10.2,12.7
		c3.6,9.9,5.7,20.9,7.8,31c1.2,5.9,5,11.1,6.6,17c1.8,6.7-5.8,17.4-12.5,19.4c-11.4,3.4-21.4-11.6-25.8-20
		c-5.2-9.7-7.2-19.7-6.6-30.8c0.4-6.9,3.5-13.8,3.3-20.7"/>
	<path class="st230" d="M560.3,227c-1.4-0.1-8.3,2.1-7.2,4.4c0.6,1.4,8.5,0.8,9.8,0.8c5.1,0,10.3,0,15.2-1c2.1-0.4,4.3-0.4,6.6-0.5
		c3.6-0.1,8.7-1.8,12.1,0.2c2.3,1.3,3.7,5.7,6.5,2.6c2.4-2.6-0.2-5.6-2.6-7.1c-4.7-2.8-13.7-1.9-18.8-1.7
		C575.3,225,568.7,225.6,560.3,227z"/>
	<g>
		<path class="st231" d="M538.9,332.5c3.5-1.8,10.7,0.6,12.6,4.1c1.2,2.2-0.4,3.8-1.9,5.4c-1.4,1.5-4.1,2.5-6,1.6
			c-1.6-0.7-2.3-2.4-3.1-3.8c-0.6-1.2-1.2-2.5-1.5-3.8C538.7,335,539.2,332.9,538.9,332.5z"/>
	</g>
	<g>
		<path class="st39" d="M549.8,370.8c1.5,1.3,1.7,7.1,0,9.5c8.5,1.7,3.6-13.9,0-10"/>
	</g>
	<g>
		<path class="st39" d="M552.3,391c-0.1,1.1,2.9,4.4,3.8,5.9c1.3,2.2,3.5,4.7,4.5,7c1,2.4-0.8,4.2-2.1,6.6c-1.8,3.3-2.9,7-4.7,10.2
			c2.4-3.8,4.8-7.9,7.5-11.6c1.7-2.4,3.7-3.7,2.1-6.2c-1.7-2.9-4.6-6.2-6.8-8.6C555.4,393,554.3,391.3,552.3,391z"/>
	</g>
</g>
<g id="лайн_не_трогать">
	<g>
		<g>
			<g>
				<path class="st211" d="M402.4,146.3c6-5.3,10.9-11.4,14.9-18.3c-0.5-0.1-0.9-0.3-1.4-0.4c0,1.9,1.1,3.2,3.1,3.4
					c2.9,0.3,5.6-3.2,7.1-5.1c5.5-6.6,8.3-14.8,8.3-23.4c-0.4,0.2-0.8,0.4-1.1,0.6c1,0.5,13.8,8.7,10.3,10.4
					c-0.9,0.4-0.1,1.7,0.8,1.3c5.5-2.6,7.2-9.3,4.5-14.5c-3.9-7.5-12.9-9.4-20.4-10.7c0,0.5,0,1,0,1.4c15.4-5.2,31.3,3.4,35.2,19.2
					c0.1,0.4,0.6,0.7,0.9,0.5c5.3-2.2,8.1-7.1,7.1-12.8c-0.4,0.2-0.8,0.5-1.3,0.7c4.2,3.3,6.6,7.6,7.2,12.9c0.1,0.7,0.8,0.9,1.3,0.5
					c7.3-5.7,16-8.2,25.2-7.3c-0.1-0.5-0.3-0.9-0.4-1.4c-4.6,2.1-7.8,5.7-9.5,10.4c-0.2,0.5,0.4,1.1,0.9,0.9
					c11.2-4.7,23.4-4.5,34.4,0.6c0.9,0.4,1.6-0.9,0.8-1.3c-11.3-5.3-24-5.7-35.5-0.8c0.3,0.3,0.6,0.6,0.9,0.9
					c1.6-4.5,4.6-7.6,8.9-9.6c0.7-0.3,0.3-1.3-0.4-1.4c-9.6-0.9-18.7,1.8-26.2,7.8c0.4,0.2,0.9,0.4,1.3,0.5
					c-0.6-5.7-3.1-10.4-7.6-13.9c-0.6-0.5-1.4,0-1.3,0.7c0.4,2.2,0.1,4-0.8,6c-0.5,1.1-2.9,4.8-4.7,4c-0.5-0.2-1.9-4.9-2.2-5.6
					c-1.9-3.5-4.5-6.7-7.7-9.2c-7.7-5.9-17.7-7.1-26.8-4.1c-0.6,0.2-0.8,1.3,0,1.4c5.1,0.9,10.6,1.8,15,4.9
					c5.8,4.2,8.7,13.9,0.7,17.6c0.3,0.4,0.5,0.9,0.8,1.3c6.4-3.2-8.1-11.9-10.3-13c-0.5-0.3-1.1,0.1-1.1,0.6c0,5.3-1,10.3-3.2,15.1
					c-0.9,1.9-2,3.8-3.2,5.5c-0.9,1.2-1.9,2.4-3,3.5c-1.4,1.9-3.4,2.2-6,1c0-0.7-1-1-1.4-0.4c-3.9,6.8-8.8,12.8-14.7,18
					C400.6,145.9,401.6,147,402.4,146.3L402.4,146.3z"/>
			</g>
		</g>
		<g>
			<g>
				<path class="st211" d="M528.1,114.1c10.5-4.2,21.7-5.4,32.8-3.4c-0.1-0.5-0.1-0.9-0.2-1.4c-2.1,1.1-4.1,2.1-6.2,3.2
					c-0.6,0.3-0.4,1.2,0.2,1.4c14.4,5.7,25.7,16.8,31.8,31c0.3-0.4,0.6-0.7,0.8-1.1c-2.4-0.9-4.7-1.8-7.1-2.8
					c-0.7-0.3-1.2,0.8-0.7,1.3c7.7,8,11.8,18.2,11.9,29.3c0.4-0.2,0.9-0.4,1.3-0.5c-1.6-1.7-3.3-3.3-4.9-5c-0.6-0.6-1.5,0.2-1.2,0.9
					c3.2,6.8,2.6,14.3-1.5,20.5c-0.5,0.8,0.8,1.6,1.3,0.8c4.4-6.7,4.9-14.8,1.5-22c-0.4,0.3-0.8,0.6-1.2,0.9c1.6,1.7,3.3,3.3,4.9,5
					c0.5,0.5,1.3,0.1,1.3-0.5c0-11.4-4.3-22.1-12.3-30.3c-0.2,0.4-0.5,0.8-0.7,1.3c2.4,0.9,4.7,1.8,7.1,2.8c0.7,0.3,1.1-0.6,0.8-1.1
					c-6.3-14.6-18-25.9-32.7-31.7c0.1,0.5,0.1,0.9,0.2,1.4c2.1-1.1,4.1-2.1,6.2-3.2c0.5-0.3,0.5-1.3-0.2-1.4
					c-11.4-2-22.8-0.9-33.6,3.4C526.9,113,527.2,114.5,528.1,114.1L528.1,114.1z"/>
			</g>
		</g>
		<g>
			<g>
				<path class="st211" d="M545.1,129.1c7.5,4.8,11.4,12.7,13.2,21.2c1.4,6.3-0.2,14.8,4,20.1c5.2,6.7,12.8,12.4,19.3,17.8
					c7,5.8,14.3,11.2,21.8,16.3c0.8,0.5,1.6-0.8,0.8-1.3c-8.4-5.7-16.5-11.8-24.2-18.4c-6.8-5.8-18-13.2-18.7-22.7
					c-0.9-13-3.5-26.8-15.3-34.4C545.1,127.3,544.3,128.6,545.1,129.1L545.1,129.1z"/>
			</g>
		</g>
		<g>
			<g>
				<path class="st211" d="M401.2,145.6c-18.3-13.5-42.5-7.8-59.8,4.5c-4.5,3.2-8.7,6.8-12.7,10.6c-3.4,3.3-7.8,6.9-9.9,11.3
					c-1.5,3.2-1.5,6.7,1.6,8.9c2.2,1.5,4.8,1.6,6.6-0.4c-0.4-0.2-0.8-0.5-1.3-0.7c-2.7,8.1-18.2,17.8-10.6,27.6
					c0.2,0.3,1.9,1.6,2,1.8c0.4,1.2-1.4,2.9-1.9,3.8c-1.7,2.7-3.3,5.4-4.7,8.2c-2.4,5-4.4,10.7-4.1,16.4c0.2,3.3,1.3,7,4,9.2
					c1.3,1.1,2.9,1,3.3,2.2c0.2,0.6-1.1,4.4-1.3,5.1c-0.2,1.1-0.4,2.5-0.5,3.7c-0.5,5.2-0.5,25.5,9,22.8c-0.3-0.3-0.6-0.6-0.9-0.9
					c-2.7,12.7-2,29.8,6.4,40.6c1.1,1.5,2.7,3,4.6,3.7c0.4,0.1,2.3,0.1,2.5,0.3c1,0.8,0.8,2.9,1,4.2c0.8,6,2.6,12.2,7.4,16.3
					c3.5,3,8.1,4.2,12.4,2.5c1.1-0.4,2.1-1,3-1.7c0.4-0.3,1.9-2.5,2.2-2.6c1.8-0.6,6.7,3.4,8.5,4.2c9.7,4.2,25.1,3.4,27.8-9.4
					c0.2-1.1-0.1-2.7,0.7-3.5c0.1-0.2,2.3-0.9,2.7-1.1c2.1-1.3,3.5-3.7,4.3-5.9c2.5-6.7,1.2-14.2-2.3-20.2c-0.3,0.3-0.7,0.7-1,1
					c6.1,3.5,8.4-9.6,8.7-13.1c0.5-5.8-1.7-11.3-1.5-17c0.2-5.8,1.4-11.2,0.7-17.1c-0.3-2.3-0.7-4.6-1.1-6.9c-0.3-1.5-2.7-7.2-2-8.6
					c0.1-0.2,1.3-0.7,1.7-1.1c0.8-0.8,1.1-1.9,1.3-3c1-4.9-0.5-11.1-1.1-16c-0.8-5.8-1.9-11.6-3.3-17.3c-0.3,0.3-0.6,0.6-0.9,0.9
					c1,0.2,2.1,0.4,3.1,0.6c0.3,0.1,0.7,0,0.8-0.3c4.6-10.2,0.7-20.5-3.6-30.1c-1.7-3.9-3.8-7.1-2.6-11.5c0.7-2.4,1.6-4.7,1.9-7.2
					c0.8-5.7,0-11.2-2-16.5c-0.3-0.9-1.8-0.5-1.4,0.4c2.3,5.9,3,12.2,1.5,18.4c-1,4.3-3,6.8-1.4,11.1c1.9,5.2,4.8,10.1,6.5,15.4
					c1.2,3.6,4.4,19.8-2.4,18.3c-0.6-0.1-1.1,0.3-0.9,0.9c0.9,4,8.4,35.1,1.9,35.5c-0.5,0-0.8,0.5-0.7,0.9c1.4,5.6,2.9,11.2,3.4,17
					c0.5,5-0.2,9.6-0.7,14.5c-0.5,4.7,0.9,8.8,1.3,13.5c0.2,2.2-1,20.1-6.4,17c-0.7-0.4-1.4,0.4-1,1c3.6,6.3,6.7,24.2-4.8,25.1
					c-0.4,0-0.8,0.3-0.8,0.8c0.9,8.1-6.5,14.2-14.1,14.7c-7.5,0.4-14.4-3.5-20.5-7.5c-0.3-0.2-0.9-0.1-1,0.3
					c-3.4,7.8-13,6.2-17.6,0.6c-4.3-5.2-5-12.1-5.6-18.6c0-0.4-0.5-0.9-0.9-0.7c-8.1,2.9-12.1-14.1-13.2-19.2
					c-1.6-7.7-1.4-15.4,0.2-23.1c0.1-0.5-0.3-1.1-0.9-0.9c-6.4,1.8-7.3-13-7.3-16.1c-0.1-5.2,0.8-10.3,2.5-15.2
					c0.2-0.5-0.3-1-0.7-0.9c-9.4,0-7.2-14-5.4-19.5c2.2-6.4,6-12.2,9.7-17.8c0.2-0.3,0.1-0.9-0.3-1c-12.9-5.8,5.8-21,8.1-28.2
					c0.2-0.7-0.8-1.3-1.3-0.7c-5,1.5-7.1-0.4-6.3-5.5c0.7-1.9,1.8-3.6,3.2-5.1c1.1-1.2,2.2-2.4,3.4-3.5c2.7-2.7,5.5-5.4,8.3-7.9
					c6.1-5.3,12.8-10,20.2-13.3c14.6-6.6,32.4-7,45.7,2.8C401.2,147.5,402,146.2,401.2,145.6L401.2,145.6z"/>
			</g>
		</g>
		<g>
			<g>
				<path class="st211" d="M407.2,162.2c3.7-9.3,10.2-18.6,18.6-24.2c3-2,6.3-4.2,9.7-5.2c3.4-1,5.6,1.6,6.7,4.5
					c0.3,0.7,1,2.4,0.8,3.2c-0.3,2,0.8,0.3-1.1,1.2c-2.4,1.1-5.6,1.1-8.2,2.1c-3.7,1.5-7.2,3.6-10.4,5.9c-3.1,2.2-6.1,4.7-8.8,7.5
					c-1,1.1-2,2.2-2.9,3.3c-0.5,0.6-0.9,1.2-1.3,1.8c-0.2,0.2-3.3,5.3-2.6-0.4c0.1-1-1.4-0.9-1.5,0c-0.3,2.1,1,3.1,2.8,4
					c0.4,0.2,0.8,0.1,1-0.3c5.9-10.8,21.1-22.9,33.9-22.5c0.4,0,0.8-0.4,0.8-0.8c-0.1-3.6-1.4-9.4-5-11.2c-3.3-1.7-8,1.5-10.7,3.1
					c-10.6,6.2-18.7,16.1-23.2,27.5C405.4,162.7,406.9,163.1,407.2,162.2L407.2,162.2z"/>
			</g>
		</g>
		<g>
			<g>
				<path class="st211" d="M510.9,119.8c-0.9,3.7-0.2,8.3-0.1,12c0,0.5,0.5,0.9,0.9,0.7c4.6-1.4,12.3,1.1,16.8,2.5
					c5.4,1.7,11.5,4.3,15.9,7.8c0.5,0.4,1.5,0.1,1.3-0.7c-2.2-6.5-7.3-12.8-12.9-16.7c-5.6-3.8-13.9-8.3-20.9-6.8
					c-0.9,0.2-0.5,1.6,0.4,1.4c6.6-1.4,14.6,3.1,19.7,6.7c5.2,3.6,10.2,9.7,12.2,15.8c0.4-0.2,0.8-0.5,1.3-0.7
					c-6.2-4.9-14.7-8.1-22.4-9.6c-2.1-0.4-4.3-0.9-6.4-1.3c-0.7-0.1-3.8,0.1-4.2-0.2c-1.1-0.9-0.7-8.9-0.3-10.5
					C512.6,119.3,511.1,118.9,510.9,119.8L510.9,119.8z"/>
			</g>
		</g>
		<g>
			<g>
				<path class="st248" d="M509.6,146.8c-3.8-8.6-14.4-14.4-23.7-13.7c-9.4,0.7-17.3,11.8-16.1,20.9c0.7,5.3,3.7,10,6.5,14.4
					c4,6.2,8.4,12.3,12.9,18.2c4.2,5.5,9,10.6,13.3,16c2.1,2.6,4.6,4.9,6.5,7.7c1.3,2,5.4,7.3,5.4,9.8c0,1,1.5,1,1.5,0
					c0-3.1-3.3-6.6-4.8-9.1c-2.8-4.7-6.8-8.7-10.2-13c-7.3-9.2-15.1-17.9-21.6-27.8c-3-4.6-6.5-9.4-7.7-14.9
					c-1.5-6.8,2-12.8,6.9-17.3c9.1-8.5,25.5-0.3,29.9,9.6C508.7,148.4,510,147.7,509.6,146.8L509.6,146.8z"/>
			</g>
		</g>
		<g>
			<g>
				<path class="st248" d="M514.3,219.9c-3.7,0.1-7.1-1.4-10.7-1.6c-3.5-0.2-7.2,0.7-10.6,1.3c-7.1,1.4-14.1,2.7-20.8,5.7
					c-6.4,2.9-12.1,6.9-17.4,11.4c-4.5,3.9-9.3,7.9-11.4,13.6c-0.2,0.5,0.3,0.9,0.7,0.9c3.3,0.3,6.4-0.4,9.7-0.5
					c-0.2-0.4-0.4-0.8-0.6-1.1c-1.5,3.4-4.8,5.7-7.1,8.5c-2.2,2.6-4.4,5.5-6,8.6c-3.2,6.2-4.9,13.6-4.7,20.6c0,0.5,0.6,1,1.1,0.6
					c3.2-2.2,6-4.9,9.5-6.5c-0.3-0.4-0.5-0.9-0.8-1.3c-11.7,5.3-9.1,26.6-5.9,36.3c0.2,0.6,1,0.7,1.4,0.2c1.8-2.7,4.1-4.9,6.3-7.3
					c-0.4-0.3-0.8-0.6-1.2-0.9c-4.6,7.4,1.6,18.2,5.7,24.4c2.8,4.1,6.3,7.3,10.5,9.9c5.6,3.4,11.5,6.9,17.6,9.2
					c12.9,5,29.1,5.3,42.7,4.5c14.7-0.9,28.3-4.7,41.9-10.2c13.6-5.5,26.8-12,38.7-20.6c10.2-7.5,16.7-17.1,21.6-28.7
					c9.9-23.1,17.1-51.4,2.4-74.3c-7.9-12.3-19.4-18.7-33.7-20.8c-7.3-1.1-14.8-1.7-22.2-1.6c-3.4,0.1-6.8,0.3-10.2,0.9
					c-3.5,0.6-6.6,2.6-10,3.2c-0.9,0.2-0.5,1.6,0.4,1.4c2.4-0.4,4.5-1.9,6.8-2.5c3.1-0.9,6.4-1.2,9.6-1.4c6.2-0.4,12.4,0,18.6,0.6
					c12.7,1.2,25.2,4.2,34.1,14c8.7,9.6,12.7,21.4,13.5,34.2c0.7,13.2-2.6,25.2-7.2,37.4c-4.1,10.8-8.8,22.1-17.1,30.4
					c-9.1,9-21.4,15.5-32.8,20.9c-11.8,5.6-24.3,10.8-37.1,13.4c-12.7,2.6-25.9,3-38.8,1.8c-7.9-0.8-16.3-1.8-23.5-5.3
					c-5.7-2.7-11.8-5.8-17-9.5c-4.6-3.3-7.8-7.8-10.4-12.8c-2.6-4.9-6-12.4-2.7-17.7c0.4-0.7-0.6-1.5-1.2-0.9
					c-2.3,2.5-4.7,4.7-6.5,7.6c0.5,0.1,0.9,0.1,1.4,0.2c-2.9-9.1-5.7-29.6,5.3-34.6c0.9-0.4,0.1-1.7-0.8-1.3
					c-3.6,1.6-6.3,4.3-9.5,6.5c0.4,0.2,0.8,0.4,1.1,0.6c-0.3-7.8,2-16.2,6.3-22.7c3.2-4.9,9.1-8.8,11.3-14.2c0.2-0.5,0-1.1-0.6-1.1
					c-1.7,0-3.3,0.3-4.9,0.4c-2.3,0.2-3.9,1-2.7-1.8c1.2-2.9,4.7-5.7,7-7.7c5.4-4.8,11.1-9.2,17.5-12.4c6.8-3.4,13.6-4.8,21-6.3
					c3.9-0.8,8-2,12-1.7c3.7,0.3,7,1.7,10.7,1.6C515.3,221.4,515.3,219.9,514.3,219.9L514.3,219.9z"/>
			</g>
		</g>
		<g>
			<g>
				<path class="st248" d="M507.9,146.9c4.5,11.5,9,23.2,15.6,33.7c3.2,5.1,6.8,9.9,11.1,14.1c4.5,4.5,10,7.7,15.3,11.3
					c0.8,0.5,1.6-0.8,0.8-1.3c-5.4-3.6-11-6.9-15.6-11.6c-4.3-4.4-7.9-9.4-11.1-14.6c-6.1-10.1-10.4-21.1-14.6-32
					C509,145.6,507.6,146,507.9,146.9L507.9,146.9z"/>
			</g>
		</g>
		<g>
			<g>
				<path class="st205" d="M545.3,220.3c-15,0.7-32.1,11-37.7,25.4c-7.4,18.8,14.9,28.6,29.4,32.3c10.5,2.6,22.7,6.2,33.5,3.5
					c10.1-2.5,18.9-9,26.4-16.1c6.5-6.1,12.7-12.9,14.5-21.9c1.3-6.4,1.9-14.9-1.8-20.6c-5.2-8.1-20.3-6-28.2-5.4
					c-6.4,0.5-12.8,0.9-19.2,1.3c-5.8,0.4-11.8,2-17.6,1.6c-1-0.1-1,1.4,0,1.5c3.4,0.2,6.7-0.4,10-0.8c4.9-0.7,9.8-0.8,14.7-1.1
					c9.1-0.5,18.2-1.9,27.3-1c4.7,0.5,9.9,1.1,12.4,5.7c1.8,3.4,2,7.6,1.9,11.4c-0.3,8.4-3,15.6-8.5,21.9
					c-5.9,6.7-12.9,13-20.7,17.4c-10.4,5.9-20.2,6.2-31.7,3.9c-8.9-1.8-18.5-3.4-26.8-7.4c-6.9-3.3-15.8-10.3-15.6-18.8
					c0.4-17.4,22.4-30.4,37.8-31.2C546.3,221.7,546.3,220.2,545.3,220.3L545.3,220.3z"/>
			</g>
		</g>
		<g>
			<g>
				<path class="st205" d="M580.8,276.3c0-5.2-0.6-16.9,6.7-17.7c5.8-0.7,2.8,9.8,0.9,12.4c-0.6,0.8,0.7,1.5,1.3,0.8
					c2.3-3.1,5.3-14-1-14.7c-9.5-1.1-9.4,13.5-9.4,19.3C579.2,277.3,580.7,277.3,580.8,276.3L580.8,276.3z"/>
			</g>
		</g>
		<g>
			<g>
				<path class="st205" d="M564.8,280.7c0-4.8-3.4-9.4-7-12.3c-2.6-2.1-7.3-4.3-10.6-2.3c-5.6,3.4,2.7,12.8,6.1,14.6
					c0.8,0.5,1.6-0.8,0.8-1.3c-2.5-1.4-10-9.2-6.1-12c2.8-2.1,7.6,0.9,9.6,2.8c2.9,2.6,5.7,6.5,5.7,10.6
					C563.3,281.6,564.8,281.6,564.8,280.7L564.8,280.7z"/>
			</g>
		</g>
		<g>
			<g>
				<path class="st249" d="M405.4,304.7c4.7,8.3,12.9,13.9,20.6,19.4c4.6,3.3,10,5.2,15.1,7.5c3.7,1.7,7.5,3.5,11.7,3.8
					c1,0.1,1-1.4,0-1.5c-4.7-0.4-8.8-2.7-13.1-4.6c-4.5-2-8.9-3.7-12.9-6.5c-7.4-5.3-15.5-10.7-20-18.8
					C406.2,303.1,404.9,303.9,405.4,304.7L405.4,304.7z"/>
			</g>
		</g>
		<g>
			<g>
				<path class="st249" d="M397.1,335.2c9,8.5,17.5,15.7,29,20.7c12.3,5.3,24.4,11.1,37.3,14.8c12.3,3.5,24.9,5.4,37.6,6.9
					c14.1,1.6,27.8,2.3,42,0.5c0.9-0.1,1-1.6,0-1.5c-25.5,3.1-52.7-0.2-77.4-6.9c-12.8-3.5-24.8-9-37-14.3
					c-5.4-2.4-10.6-4.7-15.4-8.1c-5.4-3.9-10.2-8.6-15-13.1C397.5,333.5,396.4,334.5,397.1,335.2L397.1,335.2z"/>
			</g>
		</g>
		<g>
			<g>
				<path class="st249" d="M558.3,373.1c6.2-0.2,12-2,17.7-4.4c4.6-2,9.3-4,12.1-8.3c2.4-3.6,3.1-7.9,3.5-12.2
					c0.4-4.6,1.2-9.9-0.2-14.4c-0.3-0.9-1.7-0.5-1.4,0.4c1.2,3.8,0.5,8.1,0.3,12c-0.3,4.2-0.7,8.7-2.8,12.4
					c-2.4,4.2-6.4,6.2-10.6,8.1c-6,2.7-12,4.7-18.5,4.9C557.4,371.6,557.4,373.1,558.3,373.1L558.3,373.1z"/>
			</g>
		</g>
		<g>
			<g>
				<path class="st250" d="M547,385.3c8.8,5.2,14.9-12.1,8.9-17.5c-4.1-3.8-11.2-0.8-12.4,4.4c-0.7,3.5-0.2,11.2,3.9,12.5
					c0.9,0.3,1.3-1.2,0.4-1.4c-2.9-0.9-3.3-7.5-3-9.9c0.6-5.2,8.4-8.5,11.1-2.9c2.2,4.6-1.4,17.6-8.3,13.5
					C546.9,383.5,546.1,384.8,547,385.3L547,385.3z"/>
			</g>
		</g>
		<g>
			<g>
				<path class="st250" d="M547.3,385.1c-1.8,8.7-6,16.4-9,24.7c-0.1,0.2,0,0.6,0.2,0.7c3.7,3.1,7.3,6.5,10.1,10.5
					c2,2.9,3.5,6,6.1,8.4c0.4,0.4,1.1,0.2,1.3-0.3c2.9-9.2,9.6-16.5,12.7-25.6c0.1-0.3-0.1-0.7-0.3-0.8c-3.8-1.8-5.5-5.5-7.7-8.8
					c-2.4-3.5-4.3-7.3-6.7-10.8c-0.5-0.8-1.8,0-1.3,0.8c2.6,3.8,4.8,8,7.3,11.9c1,1.5,1.8,3,2.9,4.4c0.8,1.1,2.5,2.1,3.2,3.1
					c1.8,3.2-3.7,10.1-5.6,13.2c-2.4,4-4.5,7.9-5.9,12.4c0.4-0.1,0.8-0.2,1.3-0.3c-2.9-2.7-4.5-6.3-6.9-9.5c-1-1.3-2.1-2.5-3.2-3.6
					c-1.3-1.4-4-3-4.9-4.7c-1.8-3.2,2.2-8.7,3.5-11.8c1.8-4.3,3.4-8.7,4.3-13.3C548.9,384.6,547.5,384.2,547.3,385.1L547.3,385.1z"
					/>
			</g>
		</g>
		<g>
			<g>
				<path class="st211" d="M375.4,348.6c-1.7,4-5.7,6.8-8.1,10.4c-3.3,4.8-6.3,10.1-8.6,15.4c-2.1,4.7-3.5,9.8-4.8,14.8
					c-1.4,5.5-1.3,11.2-2.8,16.6c-0.3,0.9,1.2,1.3,1.4,0.4c1.4-4.9,1.3-10,2.4-15c1.4-5.9,3.2-12,5.8-17.5c2.2-4.8,4.9-9.6,8-13.9
					c2.5-3.5,6.4-6.4,8.1-10.4C377,348.5,375.7,347.7,375.4,348.6L375.4,348.6z"/>
			</g>
		</g>
		<g>
			<g>
				<path class="st211" d="M353,389c-5.3,7-9.4,14.7-13.1,22.5c-3.8,8-8,15.9-11.4,24.1c-7,16.9-9.5,34.1-9.6,52.4c0,1,1.5,1,1.5,0
					c0-18.9,2.9-36.8,10.5-54.2c6.5-15,13.5-31.1,23.4-44.1C354.9,388.9,353.6,388.2,353,389L353,389z"/>
			</g>
		</g>
		<g>
			<g>
				<path class="st211" d="M453.9,422.8c-1.2,4.8-0.7,9.8-0.7,14.7c0,6.5,0.1,13.1,0.5,19.6c0.4,5.3,1.4,10.4,2.6,15.6
					c1.4,6.2,4.2,11.7,5.9,17.8c0.3,0.9,1.7,0.5,1.4-0.4c-1.5-5.2-4-10-5.3-15.3c-1.4-5.8-2.7-11.7-3.1-17.7
					c-0.4-5.6-0.4-11.2-0.5-16.8c0-5.6-0.7-11.6,0.6-17.1C455.6,422.3,454.2,421.9,453.9,422.8L453.9,422.8z"/>
			</g>
		</g>
		<g>
			<g>
				<path class="st211" d="M495.9,430c0.8,11.5,1.3,23.1,1.3,34.7c0,9.5-0.1,19.4-3.3,28.5c-0.3,0.9,1.1,1.3,1.4,0.4
					c3.1-8.7,3.3-18.3,3.4-27.4c0.1-12-0.5-24.1-1.3-36.1C497.3,429,495.8,429,495.9,430L495.9,430z"/>
			</g>
		</g>
		<g>
			<g>
				<path class="st211" d="M570.6,431.7c0,20.2-1.6,40.3-6.2,60c0.5,0.1,1,0.1,1.5,0.2c0-0.3,0-0.6-0.1-0.8c-0.1-1-1.6-1-1.5,0
					c0,0.3,0,0.6,0.1,0.8c0.1,0.8,1.3,1.1,1.5,0.2c4.7-19.8,6.2-40,6.3-60.4C572.1,430.7,570.6,430.7,570.6,431.7L570.6,431.7z"/>
			</g>
		</g>
		<g>
			<g>
				<path class="st211" d="M585.6,362.9c3.8,9.4,5.6,20.1,8.1,30c2.7,10.9,4.7,22.2,6.2,33.3c1.5,11.2,1.5,22,0.5,33.2
					c-0.4,5.1-1,10.1-1.6,15.1c-0.5,4.3-0.5,9.3-2.8,13.1c-0.5,0.8,0.8,1.6,1.3,0.8c1.7-2.7,2.1-5.9,2.5-9c0.6-4.8,1.2-9.6,1.7-14.5
					c1.1-12.1,1.8-23.9,0.3-36.1c-1.3-11-3.3-22.1-5.8-32.9c-1.3-5.5-2.9-11-4.3-16.5c-1.4-5.7-2.4-11.5-4.6-17
					C586.7,361.6,585.2,362,585.6,362.9L585.6,362.9z"/>
			</g>
		</g>
		<g>
			<g>
				<path class="st211" d="M319.7,480.8c31.6,0,63.2,0.1,94.8,0.1c50.2,0.1,100.4,0.1,150.5,0.2c11.5,0,23.1,0,34.6,0
					c1,0,1-1.5,0-1.5c-31.6,0-63.2-0.1-94.8-0.1c-50.2-0.1-100.4-0.1-150.5-0.2c-11.5,0-23.1,0-34.6,0
					C318.7,479.2,318.7,480.7,319.7,480.8L319.7,480.8z"/>
			</g>
		</g>
		<g>
			<g>
				<path class="st251" d="M138.8,306.3c0.1-6.4,5-12,8.9-16.7c3.4-4.1,6.6-8.2,9.6-12.6c3.4-4.9,7.7-9.6,9.6-15.4
					c0.2-0.5,0.6-3.1,0.7-3.2c0.8-0.4,2.3,2.4,2.6,2.8c1.3,2,2.1,4.3,3.4,6.3c0.2,0.3,0.7,0.5,1,0.3c6.6-3.8,16-6.8,16.4-15.8
					c-0.5,0.1-1,0.1-1.5,0.2c1.2,5,3.4,9.6,1.4,14.7c-0.2,0.6,0.6,1.1,1.1,0.8c5.6-3.1,15.3-9.5,13.6-17c-0.5,0.2-0.9,0.4-1.4,0.6
					c2,2.7,3.9,5,3.9,8.5c0,0.5,0.6,1,1.1,0.6c4.1-2.6,8.3-6.2,9.6-11c-0.5-0.1-1-0.1-1.5-0.2c0.2,5.9,7.3,7.8,10.4,11.9
					c0.4,0.5,1.4,0.4,1.4-0.4c0-0.3,0-0.6,0-0.9c0-1-1.5-1-1.5,0c0,0.3,0,0.6,0,0.9c0.5-0.1,0.9-0.3,1.4-0.4
					c-2.8-3.7-10.1-6-10.2-11.1c0-0.8-1.2-1-1.5-0.2c-1.2,4.4-5.2,7.7-8.9,10.1c0.4,0.2,0.8,0.4,1.1,0.6c-0.1-3.8-1.9-6.4-4.1-9.3
					c-0.5-0.7-1.6-0.3-1.4,0.6c1.5,6.6-8.1,12.6-12.9,15.3c0.4,0.3,0.7,0.6,1.1,0.8c2.1-5.4-0.1-10.2-1.4-15.5
					c-0.2-0.8-1.4-0.6-1.5,0.2c-0.2,4.6-3.2,7.5-6.9,9.8c-1.6,1-5.6,4-7.4,4c-2.5-0.1-4.4-8.1-8-9.6c-0.5-0.2-0.9,0.3-0.9,0.7
					c-0.5,6.6-4.7,11.3-8.3,16.4c-3.1,4.4-6.1,8.9-9.6,13c-4.7,5.6-11,12.1-11.1,19.8C137.2,307.3,138.7,307.3,138.8,306.3
					L138.8,306.3z"/>
			</g>
		</g>
		<g>
			<g>
				<path class="st251" d="M229.4,261.7c0.3-23.9,15.4-43.4,32.4-58.8c4.4-4,9.3-7.6,13.7-11.5c2.4-2.1,4.7-4.4,7.2-0.9
					c1,1.4,1.9,2.6,3,3.9c8.6,9.6,18,18.3,21.6,31.2c0.3,0.9,1.7,0.5,1.4-0.4c-3.8-13.6-13.7-22.2-22.5-32.5c-1.7-2-3.7-7.1-7-6.2
					c-1.9,0.5-3.3,2.7-4.7,3.9c-2.7,2.4-5.6,4.5-8.3,6.8c-19.5,16.5-37.9,37.7-38.2,64.6C227.9,262.6,229.4,262.6,229.4,261.7
					L229.4,261.7z"/>
			</g>
		</g>
		<g>
			<g>
				<path class="st251" d="M279,187.6c-5.1,7.8-4.8,18.2-5.1,27.2c-0.5,12.9,0.3,24.8,2.7,37.4c0.2,0.9,1.6,0.5,1.4-0.4
					c-2.3-11.9-3.2-23.1-2.7-35.2c0.3-9.2-0.2-20.2,5-28.2C280.8,187.6,279.5,186.8,279,187.6L279,187.6z"/>
			</g>
		</g>
		<g>
			<g>
				<path class="st251" d="M272,262.7c3.1-6.2,8-14.1,15-16.2c-0.3-0.4-0.6-0.7-0.8-1.1c-2.4,4.4-3,8.9-1.8,13.7
					c0.1,0.5,0.7,0.7,1.1,0.4c1.2-0.8,6.4-4.4,7.4-3.6c1.2,0.9,0,4.9-0.5,6.2c-0.2,0.5,0.4,1.1,0.9,0.9c3.7-1.4,7.1-3.5,10.7-5.1
					c-0.4-0.3-0.7-0.6-1.1-0.8c-0.9,4.3,1.4,7.6,3.4,11.1c0.2,0.4,0.8,0.5,1.2,0.2c1.9-1.8,3.9-3.6,6-5.2c0.8-0.6-0.3-1.7-1.1-1.1
					c-0.9,0.7-4.2,4.3-5.2,4.2c-2.3-0.3-3.2-7.6-2.9-8.8c0.1-0.7-0.5-1.1-1.1-0.8c-3.5,1.5-6.8,3.6-10.4,4.9
					c0.3,0.3,0.6,0.6,0.9,0.9c1-2.6,1.1-5.1,0.8-7.8c0-0.5-0.4-0.9-0.9-0.7c-1.1,0.3-2.2,0.7-3.3,1.2c-0.6,0.2-3.8,2.3-4.3,2.2
					c-3-0.3,0.7-10,1.3-11.2c0.3-0.6-0.2-1.3-0.8-1.1c-7.5,2.3-12.6,10.3-15.9,16.9C270.3,262.8,271.6,263.6,272,262.7L272,262.7z"
					/>
			</g>
		</g>
		<g>
			<g>
				<path class="st251" d="M150.2,306.6c-8.7-2.4-19.7-0.9-28.2,1.6c-9.8,2.9-19.5,7.3-27.4,13.9c-7.3,6.1-13,14.1-16.8,22.8
					c-4.2,9.6-8.4,20.7-8.1,31.3c0,0.7,1.1,1.1,1.4,0.4c4.9-11,13.3-20,24.2-25.3c12.3-6,26.3-10.7,40-11.8
					c-0.1-0.5-0.3-0.9-0.4-1.4c-5,3.6-8.4,9.4-9.2,15.5c-0.1,0.6,0.3,1.1,0.9,0.9c3.1-0.8,5.7-2.6,8.9-2.7c-0.2-0.4-0.4-0.9-0.5-1.3
					c-3.4,3.9-5.4,7.6-6,12.8c-0.1,0.5,0.5,0.9,0.9,0.7c0.8-0.3,1.8-0.8,2.7-0.9c2.8-0.5,2.3,0.1,1.2,2.1c-0.9,1.7-1.6,3.4-2.2,5.2
					c-0.1,0.4,0.2,1,0.7,0.9c2.2-0.2,4.3-0.9,6.5-1.5c-0.3-0.4-0.6-0.7-0.8-1.1c-2.8,4.4-4.6,9.3-6,14.4c-0.1,0.5,0.2,0.9,0.7,0.9
					c3.2,0,6.5,0,9.6-0.1c-1,0-1,1.5,0,1.5c0.7,0,0.9-0.1,1.3-0.7c0.2-0.3,0.1-0.9-0.3-1c-1.1-0.5-1.9-0.9-3.1-1.1
					c-1.2-0.2-5.8,0.4-6.3-0.3c-0.6-0.8,1.2-4.5,1.6-5.4c1-2.6,2.2-5,3.7-7.4c0.4-0.6-0.2-1.3-0.8-1.1c-1.1,0.2-2.1,0.5-3.2,0.9
					c-1.9,0.6-2.3,0.2-1.1-1.3c0.1-1.7,2.1-4,3.1-5.3c0.3-0.4,0-1-0.4-1.1c-1.1-0.3-1.8-0.4-3-0.3c-1.6,0.1-2.5,1.4-3,0
					c-1-2.8,3.7-8,5.2-9.7c0.4-0.5,0.2-1.3-0.5-1.3c-3.5,0-6,1.9-9.3,2.7c0.3,0.3,0.6,0.6,0.9,0.9c0.8-5.6,3.9-11.2,8.6-14.6
					c0.5-0.4,0.4-1.5-0.4-1.4c-14,1.1-28.1,5.8-40.7,12c-11.1,5.4-19.8,14.6-24.8,25.9c0.5,0.1,0.9,0.3,1.4,0.4
					c-0.3-10.2,3.8-21.2,7.9-30.5c3.6-8.2,8.8-15.6,15.5-21.5c7.5-6.6,16.7-10.8,26.1-13.9c8.6-2.8,20.2-4.6,29.1-2.1
					C150.7,308.3,151.1,306.9,150.2,306.6L150.2,306.6z"/>
			</g>
		</g>
		<g>
			<g>
				<path class="st251" d="M69.4,376.4c3.1,4.1,8.5,5.4,13.2,6.4c6.5,1.4,13.3,2.6,20,3.2c9,0.8,18,0.2,27,0.5
					c3.6,0.1,10,1.6,12.9-1.3c0.7-0.7-0.4-1.7-1.1-1.1c-2.7,2.7-10.7,0.8-14.3,0.8c-7.6-0.1-15.2,0.2-22.8-0.4
					c-6-0.4-11.9-1.5-17.7-2.5c-5.3-0.9-12.6-1.8-16-6.4C70.1,374.9,68.8,375.6,69.4,376.4L69.4,376.4z"/>
			</g>
		</g>
		<g>
			<g>
				<path class="st251" d="M141.7,385.4c4.3-0.2,1.7,5.5,1.1,8.3c-0.5,2.4-1,4.7-0.9,7.1c0.1,5.2,2,10.2,4.8,14.5
					c0.3,0.5,1,0.5,1.3,0c1.6-2.8,3.6-4.9,6.1-6.9c-0.4-0.2-0.8-0.5-1.3-0.7c-2.1,10.9,0.7,24.2,8.9,32.1c0.4,0.4,1.1,0.2,1.3-0.3
					c1.1-3.2,2-6.6,4.4-9.1c-0.4-0.2-0.8-0.5-1.3-0.7c-2.5,9.7,5.7,22.1,13.8,26.9c0.4,0.2,1,0,1.1-0.4c0.5-2.4,1.1-4.5,2.5-6.5
					c-0.4,0-0.9,0-1.3,0c2.5,3.5,9.6,11.2,14.2,6.8c0.6-0.6-0.2-1.7-0.9-1.2c-3.7,2.6-6,6.3-8.5,9.9c-2.2,3.2-5.1,6.2-5,10.3
					c0,0.4,0.5,0.9,0.9,0.7c2.4-1,4-2.6,6.1-4.1c-0.4-0.2-0.8-0.4-1.1-0.6c0.1,3.8-0.5,7.6-0.4,11.4c0,1,1.5,1,1.5,0
					c-0.2-3.8,0.5-7.6,0.4-11.4c0-0.5-0.6-1-1.1-0.6c-0.8,0.6-3.7,3.3-4.6,2.4c-0.6-0.5,3-5.1,3.5-5.7c2.8-3.8,5.2-8.1,9.1-10.9
					c-0.3-0.4-0.6-0.8-0.9-1.2c-3.5,3.3-9.9-4-11.8-6.5c-0.3-0.5-1-0.5-1.3,0c-0.8,1.1-1.3,2.1-1.7,3.4c-0.6,1.8,0.1,2.5-1.4,2
					c-2.3-0.7-5.1-4.9-6.4-6.7c-3.4-4.9-6.7-11.4-5.1-17.4c0.2-0.7-0.7-1.3-1.3-0.7c-2.5,2.8-3.6,6.3-4.8,9.8
					c0.4-0.1,0.8-0.2,1.3-0.3c-7.8-7.5-10.5-20.3-8.5-30.7c0.1-0.8-0.7-1.2-1.3-0.7c-2.6,2.1-4.6,4.4-6.3,7.2c0.4,0,0.9,0,1.3,0
					c-3.1-4.7-5.1-10.3-4.6-16c0.4-4.7,2.2-9,1.9-13.8c0-0.4-0.3-0.7-0.8-0.8c-1-0.1-2-0.2-2.9-0.1
					C140.7,384,140.7,385.5,141.7,385.4L141.7,385.4z"/>
			</g>
		</g>
		<g>
			<g>
				<path class="st251" d="M244.3,396.3c-6.2-0.3-10.4,5.6-12.5,10.8c-2.9,7.1-1.4,13.7,2.6,20c2,3.3,4.8,5.8,7.2,8.8
					c4.1,5,4.2,10.9,3.9,17.1c-0.2,4.6-0.8,9.3-0.9,13.9c-0.1,5-0.2,10.3-2.6,14.9c-0.5,0.8,0.8,1.6,1.3,0.8
					c3.2-5.8,2.6-12.7,2.9-19c0.4-7.6,2.7-16.8-0.6-24c-3.3-7.3-10.6-11.5-13.2-19.4c-2.4-7.4,2-22.6,11.8-22.1
					C245.3,397.8,245.3,396.3,244.3,396.3L244.3,396.3z"/>
			</g>
		</g>
		<g>
			<g>
				<path class="st251" d="M251.2,427.3c-4.6-1.2-5-11.6-5.3-15.2c-0.4-4.7-1.1-10.7,1-15.1c3-6.4,17.3-17.9,20.1-6
					c1.6,6.8,3.4,13.6,3.3,20.5c0.5,0,1,0,1.5,0c0-0.1,0-0.2,0-0.2c0-1-1.5-1-1.5,0c0,0.1,0,0.2,0,0.2c0,1,1.5,1,1.5,0
					c0.1-5-0.8-9.2-2-14.1c-0.9-3.6-0.8-8.6-3.4-11.6c-5.2-6.1-15.4,3-18.7,7.1c-4.5,5.7-3.9,13.3-3.2,20.1
					c0.4,4.3,0.9,14.1,6.3,15.5C251.7,429,252.1,427.5,251.2,427.3L251.2,427.3z"/>
			</g>
		</g>
		<g>
			<g>
				<path class="st251" d="M266.1,385.7c1-8.3,16.8-8.5,21.2-3.5c6.1,6.9,5.7,18.4,5.3,27c0.5-0.1,0.9-0.3,1.4-0.4
					c-0.1-0.3-0.2-0.6-0.4-0.8c-0.4-0.9-1.7-0.1-1.3,0.8c0.1,0.3,0.2,0.6,0.4,0.8c0.3,0.7,1.4,0.3,1.4-0.4c0.5-9,1-25.8-8.9-30.6
					c-6.2-3-19.6-1.1-20.6,7.1C264.5,386.6,266,386.6,266.1,385.7L266.1,385.7z"/>
			</g>
		</g>
		<g>
			<g>
				<path class="st251" d="M283.9,379.5c10.5-10.2,21.7,2.2,24.6,12.6c2.8,10.2,2.7,21.4-0.1,31.6c-2.5,9.4-8.8,17-10.9,26.7
					c-2.1,10-2.6,20.5-2.6,30.6c0,1,1.5,1,1.5,0c0.1-13.2,0-28.7,6.2-40.7c2.6-5.1,5.5-9.8,7-15.4c1.6-5.9,2.5-11.9,2.4-18
					c-0.2-9.2-1.7-19.6-8-26.7c-5.9-6.6-14.6-8.1-21.2-1.7C282.1,379.1,283.2,380.2,283.9,379.5L283.9,379.5z"/>
			</g>
		</g>
		<g>
			<g>
				<path class="st215" d="M190.3,377.7c-7,5.3-7.4,18.9-2.2,25.5c0.6,0.8,1.7-0.3,1.1-1.1c-4.5-5.8-4.3-18.5,1.8-23.2
					C191.8,378.4,191.1,377.1,190.3,377.7L190.3,377.7z"/>
			</g>
		</g>
		<g>
			<g>
				<path class="st215" d="M264.9,373.2c0.5,2.6,2.5,7.8,0.2,9.9c-0.7,0.7,0.4,1.7,1.1,1.1c2.9-2.6,0.8-8.2,0.2-11.4
					C266.2,371.9,264.8,372.3,264.9,373.2L264.9,373.2z"/>
			</g>
		</g>
		<g>
			<g>
				<path class="st215" d="M185.3,391.3c8.4,6.4,16.4,11.2,26.9,12.9c6.8,1.1,15.5,2.8,21.8-0.6c0.9-0.5,0.1-1.8-0.8-1.3
					c-6.4,3.5-15.9,1.3-22.7,0.1c-9.5-1.7-17-6.6-24.5-12.4C185.3,389.4,184.5,390.7,185.3,391.3L185.3,391.3z"/>
			</g>
		</g>
		<g>
			<g>
				<path class="st215" d="M297.9,375.4c16.3-5.3,27.6-30.2,23.2-46.3c-0.3-0.9-1.7-0.5-1.4,0.4c4.2,15.2-6.6,39.4-22.1,44.4
					C296.6,374.2,296.9,375.7,297.9,375.4L297.9,375.4z"/>
			</g>
		</g>
		<g>
			<g>
				<path class="st215" d="M305.8,322.1c4.1,1.3,6.9,5.1,10.9,6.7c4.2,1.7,8.8,1.6,13.1,3c0.9,0.3,1.3-1.2,0.4-1.4
					c-4.7-1.5-9.9-1.3-14.4-3.6c-3.4-1.8-5.9-4.9-9.6-6.1C305.3,320.3,304.9,321.8,305.8,322.1L305.8,322.1z"/>
			</g>
		</g>
		<g>
			<g>
				<path class="st215" d="M176.6,360.5c1.2-15.1,14.4-26.4,28.1-30.9c0.9-0.3,0.5-1.8-0.4-1.4c-14.5,4.8-28,16.5-29.2,32.4
					C175,361.5,176.5,361.5,176.6,360.5L176.6,360.5z"/>
			</g>
		</g>
		<g>
			<g>
				<path class="st215" d="M190.7,335.5c-3.4,4.7-3.3,10.9-0.6,15.9c1.2,2.3,3,4.3,5.2,5.7c3.1,2,5.9,1.5,9.3,2.5
					c0.9,0.3,1.3-1.2,0.4-1.4c-5.2-1.5-9.8-1.4-13-6.4c-3-4.7-3.4-10.8-0.1-15.5C192.5,335.4,191.2,334.7,190.7,335.5L190.7,335.5z"
					/>
			</g>
		</g>
		<g>
			<g>
				<path class="st215" d="M190,367.4c6.4-1.3,12.2-4.3,17.5-8.2c4.4-3.3,9.5-7.3,12-12.4c0.4-0.9-0.9-1.6-1.3-0.8
					c-2.5,5.2-8.2,9.6-12.8,12.8c-4.8,3.3-10,5.9-15.7,7C188.7,366.1,189.1,367.6,190,367.4L190,367.4z"/>
			</g>
		</g>
		<g>
			<g>
				<path class="st215" d="M204.3,329.6c7.9,0,15.4,9.5,13.9,17.4c-0.2,0.9,1.3,1.3,1.4,0.4c0.8-4.6-1.1-9.2-3.8-12.9
					c-3-4-6.5-6.4-11.6-6.4C203.4,328.1,203.4,329.6,204.3,329.6L204.3,329.6z"/>
			</g>
		</g>
		<g>
			<g>
				<path class="st215" d="M253.1,304.4c8.2-12.2,25.2-19.7,39.4-13.5c5.4,2.3,10.3,6.4,6.7,12.9c-1.5,2.8-4.1,5.5-6.5,7.5
					c-5.5,4.6-12.8,6.7-19.6,8.7c-0.9,0.3-0.5,1.7,0.4,1.4c8.5-2.5,17.2-5.3,23.3-12.1c4.8-5.3,8.1-12.7,0.8-17.4
					c-15.4-10-36.1-2.7-45.8,11.8C251.3,304.4,252.6,305.2,253.1,304.4L253.1,304.4z"/>
			</g>
		</g>
		<g>
			<g>
				<path class="st215" d="M252.9,303.4c3.5,8.9,10.5,15.8,20.2,17.7c0.9,0.2,1.3-1.3,0.4-1.4c-9.1-1.7-15.8-8.3-19.1-16.6
					C254,302.1,252.6,302.5,252.9,303.4L252.9,303.4z"/>
			</g>
		</g>
		<g>
			<g>
				<path class="st215" d="M272.1,289.6c-4.7,12.4,6.2,27.5,20.1,23.9c0.9-0.2,0.5-1.7-0.4-1.4c-12.9,3.3-22.5-10.8-18.2-22.1
					C273.9,289.1,272.4,288.7,272.1,289.6L272.1,289.6z"/>
			</g>
		</g>
		<g>
			<g>
				<path class="st215" d="M187.1,312.3c0.4-3.8,7.5-4.4,9-1.2c0.7,1.5,0.3,3.9-0.1,5.4c-1,3.8-4.4,5.9-7.9,7.5
					c-5.2,2.4-11,3.1-16.3,5.3c-8.8,3.6-11.4,13.9-11.7,22.6c0.4-0.2,0.8-0.4,1.1-0.6c-3.5-2.6-2.6-9.5-1.8-13
					c1.1-4.9,2.8-10.3,6.4-13.9c3.1-3.2,7.8-3.8,11.7-5.4c3.8-1.6,7.1-3.9,10-6.8c0.7-0.7-0.4-1.7-1.1-1.1
					c-5.1,4.9-10.6,6.4-16.9,9.1c-4.7,2-7.5,5.9-9.4,10.5c-2.3,5.4-5.8,17.3,0.3,21.9c0.5,0.4,1.1-0.1,1.1-0.6
					c0.2-5,1.5-11.7,4.2-15.9c2.8-4.4,7.5-5.7,12.1-7c6.2-1.8,14.3-3.5,18.4-9.1c2.4-3.2,2.8-10.7-1.5-12.7c-3.3-1.5-8.8,1.4-9.2,5
					C185.5,313.3,187,313.3,187.1,312.3L187.1,312.3z"/>
			</g>
		</g>
		<g>
			<g>
				<path class="st215" d="M232.2,281c-3.4-1.5-4.3,3.2-3.9,5.8c0.8,5.1,6.2,7.1,10.8,7.7c6.5,0.8,11.1-2.2,16.1-6.1
					c3.5-2.7,6.3-6.3,10.6-7.7c5.6-1.8,10.8-0.2,16.4,0.7c0.6,0.1,1.2-0.5,0.8-1.1c-4.1-7.8-11.5-10.3-20-8.2
					c-4.8,1.2-9.2,3.6-13.7,5.7c-4,1.9-12.8,6.4-17.1,3.1c-0.8-0.6-1.5,0.7-0.8,1.3c5,3.8,13.9-0.8,18.6-3.1
					c10.5-4.9,24.6-11.5,31.6,2c0.3-0.4,0.6-0.7,0.8-1.1c-9.1-1.4-16.9-2.9-24.3,3.8c-3.6,3.3-7.9,7.4-12.7,8.8
					c-2.8,0.8-6,0.7-8.8,0c-1.2-0.3-2.4-0.7-3.5-1.3c-1.6-0.7-2.5-1.9-2.7-3.6c-1.4-1.9-1.1-3.7,0.9-5.3
					C232.3,282.7,233.1,281.4,232.2,281L232.2,281z"/>
			</g>
		</g>
		<g>
			<g>
				<path class="st213" d="M247.8,361c-4.8,2.9-2.7,9.6,1.6,11.7c7.5,3.7,16.8,3.2,22.2-3.6c3.1-4,6.3-13.5-0.4-16.2
					c-3.3-1.3-7.8,0.5-10.8,1.8c-4.3,1.7-9.2,3.5-12.7,6.6c-0.7,0.6,0.3,1.7,1.1,1.1c3.6-3.2,9.2-5.3,13.7-6.8
					c3.3-1.2,8.9-3.1,11,2.3c1,2.6,0,5.6-1.3,7.9c-2.7,5.1-7.3,7.9-13.1,7.7c-2.6-0.1-5.2-0.6-7.6-1.5c-3.3-1.3-7.5-6.8-2.8-9.6
					C249.4,361.8,248.6,360.5,247.8,361L247.8,361z"/>
			</g>
		</g>
		<g>
			<g>
				<path class="st251" d="M188.7,480.3c38.1,0,76.3,0,114.4,0c5.4,0,10.7,0,16.1,0c1,0,1-1.5,0-1.5c-38.1,0-76.3,0-114.4,0
					c-5.4,0-10.7,0-16.1,0C187.7,478.8,187.7,480.3,188.7,480.3L188.7,480.3z"/>
			</g>
		</g>
		<g>
			<g>
				<path class="st208" d="M553.3,313.1c-7.7-1.3-12.7,4.2-14.5,11.3c-0.9,3.6-1.2,7.7-0.3,11.4c0.7,2.8,2.1,8,5.2,9
					c3.9,1.3,6.5-3.4,8.7-5.7c4-4.3,9.1-7.7,11.7-13.1c1.3-2.7,2.4-6.6,0-9.1c-2.6-2.7-7.2-2.2-10.4-3.7c-0.9-0.4-1.6,0.9-0.8,1.3
					c2,0.9,4.1,1.2,6.3,1.8c5.1,1.4,5.8,4.9,3.3,9.6c-2,3.9-5.5,6.9-8.7,9.9c-2.1,1.9-4.5,6.1-7,7.1c-7.5,3.2-7.4-13.9-6.8-17.1
					c1.4-6.4,5.6-12.5,12.9-11.2C553.8,314.7,554.2,313.3,553.3,313.1L553.3,313.1z"/>
			</g>
		</g>
		<g>
			<path class="st203" d="M632.4,81c0.5-8.6,5.9-17.3,14.2-19.9c3.5-1.1,7.2-1.1,10.9-0.9c9,0.5,18.4,2.5,24.9,8.6
				c9.3,8.6,10.1,23.9,4.2,35.1c-5.9,11.2-17.2,18.8-29.1,23.1c-0.5,0.2-1,0.4-1.3,0.8c-0.5,0.6-0.3,1.5-0.2,2.3
				c1.4,6.4,2.9,12.7,4.3,19.1c0.1,0.6,0.3,1.2,0.8,1.6c0.4,0.3,0.8,0.3,1.3,0.4c8.3,0.9,16.8-0.1,24.7-2.9
				c-3.2-2.3-4.8-6.5-4.7-10.5s1.8-7.8,4-11.1c8.3-12.4,23.9-18.9,30.8-32.1c5.8-11.1,4-25.4-3.1-35.8s-18.5-17.3-30.7-20.6
				c-11.2-3.1-23.3-3.3-34.4-0.1c-10.7,3.1-20.7,9.3-27.6,18.1c-4.2,5.3-5.4,8.3-1.3,14c1.7,2.3,3.6,4.5,5.8,6.3
				C626.6,77.1,632.4,80.7,632.4,81z"/>
		</g>
		<g>
			<path class="st203" d="M669.1,161.3c-1.9,1.1-3.4,3.1-3.3,5.2c0.1,1.4,0.9,2.7,1.7,3.9c1.4,2.1,3,4.2,4.7,6.1
				c0.8,1,1.8,1.9,3,2.3c2,0.6,4-0.5,5.9-1.5c5.6-2.8,12-3.8,18.1-5.3c0.5-0.1,1.1-0.3,1.4-0.7c0.2-0.3,0.3-0.7,0.4-1.1
				c0.5-5.5-4.5-10.2-9.8-11.5C685.2,157.2,674.5,158.2,669.1,161.3z"/>
		</g>
		<g>
			<g>
				<path d="M412,182.5c3-4.6,5.4-8,10-11.4c3.7-2.7,7.6-4.9,11.8-6.6c3.8-1.5,7.7-2.4,11.6-3.1c4.1-0.7,8.9-2.5,13.1-1.5
					c1.9,0.5,2.7-2.4,0.8-2.9c-4-1-7.8,0.3-11.8,1.1c-5.6,1-10.9,2-16.2,4.2c-4.5,1.9-8.7,4.5-12.6,7.5c-4.5,3.4-6.5,6.6-9.5,11.3
					C408.4,182.6,411,184.1,412,182.5L412,182.5z"/>
			</g>
		</g>
		<g>
			<g>
				<path d="M512.6,152.3c4.5-3.6,11.3-4.6,16.9-5c7.3-0.6,15.4-0.4,20.8,5.3c1.3,1.4,3.4-0.7,2.1-2.1c-5.9-6.2-14.8-6.9-22.9-6.2
					c-6.5,0.6-13.8,1.7-19,5.9C508.9,151.4,511.1,153.5,512.6,152.3L512.6,152.3z"/>
			</g>
		</g>
		<g>
			<g>
				<path d="M412,177.9c-0.3,5.9,1.8,12,5.5,16.6c2.3,2.8,5.4,6.2,9.4,6c0.4,0,1.6-0.6,0.6-0.6c-4.3,0.2-8.5-5.2-10.5-8.4
					c-2.5-4.1-3.8-9.2-3.6-14C413.5,177.3,412,177.5,412,177.9L412,177.9z"/>
			</g>
		</g>
		<g>
			<g>
				<path d="M426,200.6c10.7-0.1,27-1.5,34-11c3.8-5.1,3.9-11.4,3.3-17.5c-0.5-4.5-0.1-11-4.1-14.1c-0.3-0.2-1.6,0.3-1.4,0.5
					c3.2,2.5,3.3,7.4,3.7,11.1c0.5,4.5,1.1,8.9,0.1,13.4c-3.3,14.6-22.2,16.9-34.7,17C426.6,199.9,425.3,200.6,426,200.6L426,200.6z
					"/>
			</g>
		</g>
		<g>
			<g>
				<path d="M523.2,177.7c7.7,0,16.4-0.4,23.1-4.6c7.6-4.7,8.8-14.3,5.7-22.3c-0.2-0.5-1.6-0.1-1.4,0.4c2.9,7.5,2.1,16.8-5.1,21.4
					c-6.3,3.9-14.5,4.2-21.6,4.2C523.2,176.8,522.2,177.7,523.2,177.7L523.2,177.7z"/>
			</g>
		</g>
		<g>
			<g>
				<path d="M524.6,147.5c-5.1,7.2-2.6,16.1,4.3,21.2c6.1,4.5,14.4,4.8,20.9,1c0.8-0.5-0.4-0.7-0.9-0.5
					c-13.4,7.8-32.9-7.8-22.9-21.8C526.3,147,524.9,147.1,524.6,147.5L524.6,147.5z"/>
			</g>
		</g>
		<g>
			<g>
				<path d="M433.8,163.2c-5.6,14.7,8.4,30.6,23.6,27.6c0.9-0.2,0.6-1.1-0.3-1c-14.4,2.9-27.1-13-21.9-26.4
					C435.5,162.6,434,162.6,433.8,163.2L433.8,163.2z"/>
			</g>
		</g>
		<g>
			<g>
				<path d="M443.8,161.1c-2.7,6.8-0.6,16.5,6.4,19.8c4.7,2.2,11,1.7,13.3-3.5c0.2-0.4-1.2-0.3-1.4,0.2c-2.8,6.4-11.5,3.7-14.8-0.7
					c-3.3-4.4-4-10.9-2-16C445.4,160.5,444,160.6,443.8,161.1L443.8,161.1z"/>
			</g>
		</g>
		<g>
			<g>
				<path d="M533.3,146.3c-4.5,5.4-1.8,14.8,4.9,17c5.4,1.8,12.6,0.2,15-5.4c0.2-0.4-1.3-0.2-1.4,0.2c-2.6,6.1-12.1,6.8-16.4,2.1
					c-3.3-3.6-3.9-10.1-0.7-13.9C535,145.8,533.6,145.9,533.3,146.3L533.3,146.3z"/>
			</g>
		</g>
		<g>
			<g>
				<path d="M200.7,377.1c-5.4-0.7-10.7,4.1-15.1,6.5c-7.5,4.1-14.4,9-21.1,14.2c-6.3,4.8-12.3,9.6-18,15
					c-5.8,5.6-11.5,11.4-17.8,16.4c-0.6,0.5,0.2,1.3,0.8,0.8c5.9-4.8,11.3-10.2,16.7-15.6c5.6-5.4,11.5-10.3,17.7-15.1
					c6.3-4.9,12.8-9.7,19.7-13.7c2.7-1.6,5.4-3.1,8.1-4.8c2.8-1.7,5.7-3.3,9-3.5C200.9,377.5,200.9,377.2,200.7,377.1L200.7,377.1z"
					/>
			</g>
		</g>
		<g>
			<g>
				<path d="M200.3,383.2c-5,3.7-9.5,8.2-13.8,12.6c-4.8,4.9-9.6,9.7-14.4,14.7c-4.9,5.1-9.6,10.3-14.2,15.6
					c-4.4,5.1-8.5,10.7-13.6,15.1c0.3,0.1,0.7,0.3,1,0.4c0-0.4,0.2-0.7,0.4-1.1c0.1-0.3-0.2-0.7-0.5-0.5c-0.8,0.5-1,0.7-1.1,1.6
					c-0.1,0.6,0.7,0.7,1,0.4c5-4.3,9-9.8,13.2-14.8c4.6-5.3,9.3-10.6,14.1-15.7c9.1-9.6,18.1-19.3,28-28.1
					C200.6,383.3,200.4,383.1,200.3,383.2L200.3,383.2z"/>
			</g>
		</g>
		<g>
			<g>
				<path d="M208.6,384.2c-8.2,10.1-16.6,20.1-24,30.8c-3.8,5.5-7.6,11.2-11.3,16.8c-3.6,5.3-6.9,11.4-11.3,16
					c0.4,0.2,0.7,0.3,1.1,0.5c0.1-0.3,0.1-0.6,0-0.9c0-0.4-0.5-0.5-0.7-0.2c-0.2,0.2-0.4,0.5-0.5,0.8c-0.4,0.6,0.5,1.2,1,0.8
					c2.1-1.8,3.5-4.2,5-6.5c1.8-2.7,3.6-5.4,5.4-8.1c3.8-5.8,7.6-11.5,11.4-17.3c7.5-11.2,16.1-21.5,24.1-32.4
					C208.9,384.3,208.7,384.1,208.6,384.2L208.6,384.2z"/>
			</g>
		</g>
		<g>
			<g>
				<path d="M290.2,333c0.4-2.1,3.4-4.1,4.9-5.3c2.8-2.2,5.8-4.3,8.7-6.3c2.3-1.6,4.6-3.4,6.9-5.1c3.7-2.7,7.7-5.3,10.6-9
					c0.4-0.5-0.3-1-0.7-0.5c-3.2,4.2-7.8,6.9-11.9,10.1c-2.4,1.9-4.9,3.6-7.4,5.4c-2.7,2-5.5,4-8,6.2c-1.2,1-3.5,2.8-3.5,4.5
					C289.8,333.2,290.1,333.2,290.2,333L290.2,333z"/>
			</g>
		</g>
		<g>
			<g>
				<path d="M302.1,344.8c2.3-1.6,4.1-3.9,6.4-5.6c2.4-1.8,4.9-3.4,7.4-4.9c5.1-3.1,10.5-5.9,15.4-9.5c0.5-0.4,0-1.2-0.5-0.8
					c-5.1,3.6-10.7,6.6-16,10c-2.4,1.5-4.8,3.1-7.1,4.9c-2,1.6-4.7,3.5-5.8,5.9C301.9,344.7,302,344.8,302.1,344.8L302.1,344.8z"/>
			</g>
		</g>
		<g>
			<g>
				<path d="M306.4,351.9c7.4-2.8,14.2-6.8,21.5-9.8c2-0.8,4.1-1.5,6.1-2.4c0.9-0.4,3.1-1,3.1-2.3c0-0.4-0.5-0.5-0.7-0.3
					c-2.8,2.3-6.8,3-10.1,4.5c-6.7,3.1-13.7,6.2-20.1,9.9C306,351.6,306.2,352,306.4,351.9L306.4,351.9z"/>
			</g>
		</g>
	</g>
	<path class="st252" d="M440.8,168c-2.9-0.1-6.4,2.4-8.5,4.2c-2.6,2.2-2.7,4.6,1.5,4c2.5-0.3,8.1-2.3,9.3-4.8
		C444.5,168.4,442.2,167.5,440.8,168z"/>
	<path class="st252" d="M531.5,151.3c-2.9-0.1-6.4,2.4-8.5,4.2c-2.6,2.2-2.7,4.6,1.5,4c2.5-0.3,8.1-2.3,9.3-4.8
		C535.2,151.6,533,150.8,531.5,151.3z"/>
</g>
</svg>
